<svg width="200.00000000000003" height="150" xmlns="http://www.w3.org/2000/svg">
 <!-- Created with Method Draw - http://github.com/duopixel/Method-Draw/ -->
 <g id="Layer_1">
  <title>Layer 1</title>
  <path d="m71.93566,132.74156c0,0 -0.94115,-0.44737 -1.29031,-1.29031c-0.24689,-0.59605 -0.94115,-1.09253 -1.29031,-1.93547c-0.24689,-0.59605 0.45619,-0.83412 0,-1.29031c-0.45619,-0.45619 -0.64516,-0.64516 -0.64516,-1.29031c0,0 0,-0.64516 0,-1.29031c0,-0.64516 -0.296,-1.09253 -0.64516,-1.93547c-0.24689,-0.59605 0,-1.29031 0,-1.29031c-0.64516,-0.64516 -0.64516,-1.29031 -0.64516,-1.93547c0,0 0.45619,-0.83412 0,-1.29031c-0.45619,-0.45619 -0.39827,-0.69427 -0.64516,-1.29031c-0.34916,-0.84295 -0.39828,-1.33943 -0.64516,-1.93548c-0.34916,-0.84294 -0.18896,-1.47928 -0.64516,-1.93547c-0.45619,-0.45619 -0.64516,-1.29031 -0.64516,-1.93547c0,-1.29031 -0.296,-1.73769 -0.64516,-2.58063c-0.49378,-1.19209 -0.64515,-1.93547 -1.29031,-2.58063c-0.64516,-0.64516 -0.94116,-1.73769 -1.29031,-2.58063c-0.24689,-0.59605 -0.296,-0.44738 -0.64516,-1.29032c-0.24689,-0.59605 -0.64516,-0.64516 -0.64516,-0.64516c0,-0.64516 -0.18896,-0.83412 -0.64516,-1.29031c-0.4562,-0.45619 -0.64516,-0.64516 -0.64516,-1.29031c0,0 -0.64516,-0.64516 -0.64516,-1.29031c0,0 0,0 0,0c-0.64516,0 -0.18896,-0.18896 -0.64516,-0.64516c-0.4562,-0.45619 -0.83412,-0.83412 -1.29031,-1.29031c-0.91239,-0.91239 -1.29032,-0.64516 -1.93547,-0.64516c0,0 -0.64516,0 -0.64516,-0.64516c0,-0.64516 0,-0.64516 -0.64516,-0.64516c-1.93547,0 -3.24304,0.14822 -3.87094,0c-1.40402,-0.33144 -2.03369,-0.79653 -3.22578,-1.29031c-0.84294,-0.34916 -1.73769,-0.94115 -2.58063,-1.29031c-0.59605,-0.24689 -1.73769,-0.296 -2.58063,-0.64516c-1.19209,-0.49378 -1.82176,-0.31371 -3.22578,-0.64516c-1.2558,-0.29646 -1.73769,-0.94116 -2.58063,-1.29032c-0.59605,-0.24689 -1.29031,0 -1.29031,-0.64516c0,-0.64516 -0.55014,-0.75683 -1.29031,-1.29031c-1.17031,-0.84351 -2.70063,-1.73711 -3.87094,-2.58063c-0.74017,-0.53349 -1.95273,-1.14209 -2.58063,-1.29031c-1.40402,-0.33144 -1.29031,-1.29031 -1.93547,-1.93547c-0.64516,-0.64516 -0.69427,-0.39827 -1.29031,-0.64516c-0.84294,-0.34916 -2.7172,-1.75103 -4.5161,-3.22578c-1.41118,-1.1569 -1.93547,-1.93548 -3.22579,-2.58064c0,0 -0.44738,-0.94115 -1.29031,-1.29031c-0.59605,-0.24689 -0.94116,-0.44737 -1.29031,-1.29031c-0.24689,-0.59605 -0.64516,-0.64516 -0.64516,-1.93547c0,0 -0.39827,-0.69427 -0.64516,-1.29031c-0.34916,-0.84294 -0.94116,-0.44737 -1.29031,-1.29031c-0.24689,-0.59605 0,-0.64516 -0.64516,-1.29031c0,0 0.45619,-0.18896 0,-0.64516c-0.45619,-0.45619 -0.64516,0 -0.64516,-0.64516c0,0 -0.64516,-0.64516 -0.64516,-0.64516c0,0 0,-0.64516 0,-0.64516c0,-0.64516 0,-0.64516 0,-0.64516c0,0 0,0 0,-0.64516c0,0 0,0 0,0c0,-0.64516 0,-0.64516 0,-0.64516c0,0 0,-0.64516 0,-0.64516c0,-1.29031 0.296,-1.09253 0.64516,-1.93547c0.49378,-1.1921 0.39827,-1.98458 0.64516,-2.58063c0.34916,-0.84294 0.64516,-1.29031 0.64516,-1.29031c0,0 0,-1.29031 0,-1.93547c0,0 0.296,-0.44738 0.64516,-1.29032c0.24689,-0.59605 0.296,-1.09253 0.64516,-1.93547c0.49378,-1.19209 0,-1.93547 0,-3.22578c0,-0.64516 0.39827,-1.33943 0.64516,-1.93547c0.34916,-0.84294 1.04342,-1.33942 1.29031,-1.93547c0.34916,-0.84294 0.64516,-0.64516 1.29031,-1.29031c0,0 0,0 0,-0.64516c0,0 0.64516,0 0.64516,-0.64516c0,0 -0.39671,-0.88517 1.29031,-3.22579c1.06697,-1.48034 2.52742,-3.26233 3.87094,-5.16126c1.86312,-2.63334 2.38285,-3.52179 3.22579,-3.87094c0.59605,-0.24689 0.64516,-0.64516 0.64516,-0.64516c0,0 0.64516,0 0.64516,-0.64516c0,-0.64516 0.37792,-1.66824 1.29031,-2.58063c0.45619,-0.45619 0.83412,-0.18896 1.29031,-0.64516c0.45619,-0.45619 0.18896,-0.83412 0.64516,-1.29031c0.45619,-0.45619 0.64516,-0.64516 1.29031,-1.29031c0,0 0.64516,-0.64516 0.64516,-0.64516c0,0 0.18896,-0.18896 0.64516,-0.64516c0.4562,-0.4562 1.30757,-0.49693 1.93547,-0.64516c1.40402,-0.33145 2.46692,-0.95887 3.87094,-1.29031c1.2558,-0.29645 3.22578,0 3.87094,0c0.64516,0 0.64516,0 1.29031,0c0,0 0,0 0.64516,0c0,0 0.18896,0.18896 0.64516,0.64516c0.4562,0.45619 0.64516,0.64516 1.29031,0.64516c0.64516,0 1.98458,-0.24689 2.58063,0c0.84294,0.34916 1.29031,0.64516 1.93547,0.64516c0,0 1.29032,0.64516 1.93547,0.64516c0.64516,0 1.82176,0.31371 3.22578,0.64516c1.25579,0.29645 1.93547,0.64516 2.58063,0.64516c0,0 0.64516,0 0.64516,0c0,0 0.64516,0.64516 0.64516,0.64516c0,0.64516 0,1.29031 0,1.29031c0,0 0.296,0.44738 0.64516,1.29032c0.24689,0.59605 -0.24689,1.98458 0,2.58063c0.34916,0.84294 0.64516,0.64516 0.64516,1.29031c0,0.64516 0,1.29031 0,1.29031c0,0.64516 -0.18896,0.18896 -0.64516,0.64516c-0.4562,0.45619 0,0.64516 0,1.29031c0,0 0,0.64516 0,0.64516c0,0.64516 0,1.29031 0,1.93547c0,0.64516 0,1.29031 0,1.29031c0,0.64516 0,1.29031 0,1.29031c0,0.64516 0,0.64516 0,0.64516c0,0.64516 0,0.64516 0,1.29032c0,0 0,0 -0.64516,0c0,0 -0.44737,-0.296 -1.29031,-0.64516c-0.59605,-0.24689 -1.09254,-0.94116 -1.93547,-1.29031c-0.59605,-0.24689 -1.29031,-0.64516 -1.93547,-1.29031c-0.64516,-0.64516 -1.29031,-0.64516 -1.93547,-1.29031c-0.64516,-0.64516 -0.95114,-1.38667 -1.29032,-1.93547c-0.75843,-1.22717 -1.29031,-1.29032 -1.93547,-1.93547c-0.64516,-0.64516 -1.29031,-1.29031 -1.29031,-1.29031c-0.64516,0 -0.64516,-0.64516 -1.29031,-0.64516c-0.64516,0 -1.29031,-0.64516 -1.29031,-0.64516c-0.64516,0 -1.29032,0 -1.93547,0c-0.64516,0 -0.69427,-0.24689 -1.29031,0c-0.84294,0.34916 -0.83412,0.83412 -1.29031,1.29031c-0.4562,0.45619 -0.64516,0 -0.64516,0c0,0.64516 0,0.64516 0,1.29031c0,0.64516 0,0.64516 0,1.29031c0,0.64516 0.64516,0.64516 0.64516,0.64516c0,0 0,0.64516 0,0.64516c0,0.64516 0,1.29031 0,1.29031c0,1.29031 0,1.93547 0,3.22578c0,1.29032 0.29645,1.96999 0,3.22579c-0.33144,1.40402 -0.34871,1.96999 -0.64516,3.22578c-0.33144,1.40402 -0.94116,2.38285 -1.29031,3.22579c-0.49378,1.19209 -0.54181,1.9438 -0.64516,2.58063c-0.3268,2.01382 -1.47928,2.12444 -1.93547,2.58063c-0.4562,0.4562 -0.64516,1.29031 -0.64516,1.29031c0,0 0,0 -0.64516,0c-0.64516,0 -1.41032,-0.19836 -2.58063,0.64516c-0.74017,0.53348 -1.09253,0.94116 -1.93547,1.29031c-0.59605,0.24689 -1.29032,0.64516 -1.29032,0.64516c0,0 0,0 -0.64516,0.64516c0,0 0,0 0,0c0,0 0.64516,0 0.64516,0c0.64516,0 1.29032,0 1.93547,0c1.29031,0 1.93547,0.64516 1.93547,0.64516c0.64516,0 0.64516,0 0.64516,0c0,0 0,0 0.64516,-0.64516c0.64516,-0.64516 1.47927,-0.83412 1.93547,-1.29031c0.4562,-0.4562 0.64516,-0.64516 0.64516,-0.64516c0,0 0.64516,0 1.29032,0c0.64516,0 1.29031,0.64516 1.29031,0.64516c0.64516,0 0.64516,0 1.29031,0c0.64516,0 0.64516,0 1.29031,0c0.64516,0 0.64516,0 0.64516,0c0.64516,0 0.64516,0 0.64516,0c0.64516,0 1.29032,0 1.93547,0c0.64516,0 1.29031,0.64516 1.93547,0.64516c0,0 0,0 0,0c0.64516,0 1.29031,0.64516 1.29031,0.64516c0.64516,0 0.64516,0.64516 1.29031,0.64516c0,0 -0.24689,0.04911 0,0.64516c0.34916,0.84294 1.04342,1.33943 1.29031,1.93547c0.34916,0.84294 0.83412,0.83412 1.29032,1.29031c0.4562,0.4562 0,0.64516 0,1.29031c0,0 0,0.64516 0.64516,0.64516c0,0 -0.24689,0.69427 0,1.29031c0.34916,0.84294 0.64516,0.64516 1.29031,1.29031c0,0 0,0.64516 0.64516,0.64516c0,0 0,-0.64516 0,-0.64516c0,-0.64516 1.58632,-0.44737 1.93547,-1.29031c0.24689,-0.59605 0.64516,-0.64516 1.29032,-0.64516c0,0 0.64516,0 0.64516,-0.64516c0,0 0,0 0.64516,0c0,0 0.64516,0 0.64516,0c1.29031,0 1.29031,0 2.58063,0c0,0 0.64516,0 1.29031,0c0,0 0,0 0,0c0.64516,0 0.64516,0 0.64516,0c0.64516,0 0.64516,0 0.64516,0c0,0 0.64515,0 1.29031,0c0.64516,0 1.29031,0 2.58064,0c0.64516,0 1.09253,0.296 1.93547,0.64516c1.19209,0.49378 2.67885,0.15137 3.87094,0.64516c0.84294,0.34916 1.29031,0.64516 1.93547,0.64516c0,0 0,0 0,0c0,0 0.64516,0.64516 0.64516,0.64516c0.64516,0 0.64516,0 0.64516,0c0.64516,0 0.64516,0 1.29031,0c0.64516,0 1.29031,0.64516 1.93548,0.64516c0,0 0.64516,0 0.64516,0c0.64516,0.64516 0.83412,0.18896 1.29031,0.64516c0.45619,0.45619 0,0.64516 0,0c0,0 -1.29031,-1.29031 -1.29031,-1.29031c0,-0.64516 -0.64516,-0.64516 -0.64516,-1.29031c0,0 0,0 0,0c0,-0.64516 0,-0.64516 0,-1.29031c0,0 0,0 0,-0.64516c0,0 0,0 0,-0.64516c0,0 0,-0.64516 0,-1.29031c0,-0.64516 0.18896,-0.83412 0.64516,-1.29031c0.4562,-0.4562 0,-0.64516 0,-0.64516c0,-0.64516 0,-0.64516 0,-0.64516c0,-0.64516 0,-0.64516 0,-0.64516c0,0 0,-0.64516 0,-0.64516c-0.64516,-0.64516 -0.64516,-0.64516 -1.29032,-1.29031c0,0 0,0 0,0c0,-0.64516 0,-0.64516 0,-0.64516c0,-0.64516 0,-0.64516 0,-0.64516c0.64516,-0.64516 0.64516,-1.29031 1.29032,-1.93547c0,0 0.64516,0 0.64516,0c-0.64516,0 -0.83411,-0.18896 -1.29031,-0.64516c-0.4562,-0.4562 -1.29032,0 -1.93548,0c0,0 -0.64516,-0.64516 -0.64516,-0.64516c0,0 0,0 0,-0.64516c0,0 0,0 0,-0.64516c0,-0.64516 0.91538,-0.91539 1.93547,-1.93547c1.02009,-1.02008 1.29032,-1.93547 1.93548,-1.93547c0,0 0,-0.64516 0,-0.64516c0,0 0.69427,-0.39827 1.29031,-0.64516c0.84294,-0.34916 0.64516,-0.64516 0.64516,-0.64516c0,-0.64516 0,-1.29031 -0.64516,-1.29031c0,0 0,-0.64516 -0.64516,-0.64516c0,0 0,-0.64516 0,-1.29031c0,-1.29031 0.4468,-2.70063 1.29031,-3.87094c0.53349,-0.74017 0.83412,-1.47927 1.29031,-1.93547c0.45619,-0.4562 0.64516,0 0.64516,0c0,-0.64516 0.296,-0.44738 0.64516,-1.29031c0.24689,-0.59605 0,-0.64516 0.64516,-0.64516c0,0 -0.45619,-0.18896 0,-0.64516c0.45619,-0.4562 0.64516,0 0.64516,0c0,-0.64516 0,-0.64516 0,-0.64516c0,-0.64516 0,-0.64516 0,-0.64516c0,-0.64516 -0.45619,-0.83412 0,-1.29031c0.45619,-0.45619 0.64516,-0.64516 0.64516,-0.64516c0,-0.64516 0,-1.29031 0,-1.29031c0,-0.64516 0,-0.64516 0,-0.64516c0.64516,-0.64516 0.83412,-0.18896 1.29031,-0.64516c0.45619,-0.45619 0.64516,-0.64516 0.64516,-0.64516c0.64516,-0.64516 0.74338,-0.15137 1.93547,-0.64516c0.84294,-0.34916 1.29031,-1.29031 1.93547,-1.29031c0.64516,0 1.33943,0.24689 1.93548,0c0.84294,-0.34916 1.93547,-1.29032 3.22578,-1.93547c1.29031,-0.64516 1.93547,-1.29031 2.58063,-1.29031c0.64516,0 1.29031,0 2.58063,0c0.64516,0 1.09253,0.296 1.93547,0.64516c0.59605,0.24689 1.09254,0.94116 1.93548,1.29031c0.59605,0.24689 1.29031,0.64516 1.93547,0.64516c0.64516,0 1.32483,0.34871 2.58063,0.64516c1.40402,0.33145 2.48562,1.40199 3.22578,1.93547c1.17031,0.84351 2.38284,1.58632 3.22578,1.93547c0.59605,0.24689 1.09254,0.94116 1.93548,1.29031c0.59605,0.24689 0.64516,0.64516 1.29031,1.29031c0.64516,0.64516 0.50957,1.34092 1.29031,3.22579c0.55206,1.3328 1.60403,2.46692 1.93547,3.87094c0.14822,0.6279 0.64516,1.29032 0.64516,1.93547c0,0.64516 0,1.29031 0,1.93547c0,0 0.45619,0.83412 0,1.29031c-0.45619,0.4562 -0.39827,0.69427 -0.64516,1.29031c-0.34916,0.84294 -0.39826,1.33942 -0.64516,1.93547c-0.34916,0.84294 -0.94115,0.44738 -1.29031,1.29031c-0.24689,0.59605 -0.64516,1.29031 -0.64516,1.29031c-0.64516,0.64516 -0.69427,1.04342 -1.29031,1.29031c-0.84294,0.34916 -0.64516,1.29031 -0.64516,1.29031c0,0 0,0.64516 0,0.64516c-0.64516,0 -0.64516,0 -0.64516,0c0,0.64516 -0.74068,2.08281 0,3.87094c0.34916,0.84294 0.64516,1.29031 0.64516,2.58063c0,0.64516 0,1.29032 0,1.93547c0,0.64516 -0.24689,0.69427 0,1.29031c0.34916,0.84294 0.64516,0.64516 0.64516,1.29031c0,0 0,0 0.64516,0.64516c0.64516,0.64516 0.69427,1.04343 1.29031,1.29031c0.84294,0.34916 0.64516,0.64516 0.64516,0.64516c0,0 0,0 0,0.64516c0,0 0,0.64516 0,0.64516c0.64516,0 0.64516,0 1.29031,0c0,0 0.64516,0 0.64516,0c1.29031,0 2.05547,0.19836 3.22579,-0.64516c0.74017,-0.53349 1.93547,-1.29031 2.58063,-1.93547c0,0 0,0 0.64516,0c0,0 0,0 0.64516,0c0,0 0.64516,0 0.64516,0c0.64516,0 1.09253,-0.296 1.93547,-0.64516c0.59605,-0.24689 1.29031,0 1.93547,0c1.29031,0 2.58063,0 3.22578,0c0.64516,0 0.64516,0 1.29031,0c0,0 0,0.64516 0,0.64516c0.64516,0 0.94116,-0.19778 1.29031,0.64516c0.24689,0.59605 0.69426,1.04343 1.29031,1.29031c0.84294,0.34916 1.47928,0.83412 1.93547,1.29031c0.45619,0.45619 1.04343,0.69427 1.29031,1.29031c0.34915,0.84294 1.93547,1.29031 1.93547,1.29031c0.64516,0.64516 0.64516,0.64516 1.29031,1.29031c0,0 0,0 0.64516,0c0,0 0,0 0.64516,0c0.64516,0 0.69426,-0.39827 1.29031,-0.64516c0.84296,-0.34916 1.29033,-0.64516 1.93549,-0.64516c0.64516,0 1.29031,-0.64516 1.93547,-0.64516c0,0 0.64516,0 0.64516,0c0.64516,0 0.64516,0 0.64516,0c0.64516,0 0.64516,0 1.29031,0c0,0 0.64516,0 1.29031,0c0,0 0.64516,0 0.64516,0c0.64516,0 1.29031,0 2.58063,0c1.29031,0 1.98457,-0.24689 2.58063,0c0.84294,0.34916 0.83412,0.18896 1.29031,0.64516c0.45619,0.45619 0.39827,0.69427 0.64516,1.29031c0.34915,0.84294 0.83412,0.83412 1.29031,1.29031c0.45619,0.45619 0.18896,0.18896 0.64516,0.64516c0.45619,0.45619 1.29031,1.29031 1.29031,1.29031c0.64516,1.29031 1.29031,1.29031 1.29031,1.29031c0,0 0,-1.29031 0,-1.93547c0,0 0,-0.64516 0,-0.64516c0,-0.64516 0,-0.64516 0,-1.29031c0,0 -0.24689,-0.69427 0,-1.29031c0.34915,-0.84294 0.64516,-1.29031 1.29031,-1.93547c0.64516,-0.64516 0.64516,-1.29031 0.64516,-1.29031c0,0 0,0 0,-0.64516c0,0 0,0 0,-0.64516c0,0 0,-0.64516 0.64516,-0.64516c0,0 0,0 0,-0.64516c0,0 0,-0.64516 0,-0.64516c0,-0.64516 0,-1.29032 0.64516,-1.93547c0.64516,-0.64516 0.39827,-1.98458 0.64516,-2.58063c0.34915,-0.84294 1.29031,-1.29032 1.29031,-1.29032c0,-0.64516 0,-0.64516 0,-0.64516c0,-0.64516 0,-0.64516 0,-0.64516c0,-0.64516 0,-0.64516 0,-1.29031c0,0 -0.64516,-0.64516 -0.64516,-0.64516c-0.64516,-0.64516 -0.75684,-1.1953 -1.29031,-1.93547c-0.84351,-1.17031 -1.29031,-1.93547 -1.29031,-2.58063c0,-0.64516 0,-1.29031 0,-1.29031c0,-0.64516 -0.64516,-0.64516 -0.64516,-0.64516c0,-0.64516 0,-0.64516 0,-0.64516c0,0 0,-0.64516 0,-0.64516c-0.64516,-0.64516 -0.64516,-1.29031 -0.64516,-1.29031c-0.64516,-0.64516 -0.83412,-0.83412 -1.29031,-1.29032c-0.45619,-0.4562 -0.64516,-0.64516 -0.64516,-0.64516c0,0 -0.64516,0 -0.64516,0c-0.64516,0.64516 -0.44737,0.94116 -1.29031,1.29031c-0.59605,0.24689 -1.33942,0.39827 -1.93547,0.64516c-0.84294,0.34916 -1.33942,0.39827 -1.93547,0.64516c-0.84294,0.34916 -1.29031,0.64516 -1.93547,0.64516c0,0 -0.64516,0 -0.64516,0c-0.64516,0 -0.64516,0 -0.64516,0c0,0 0.62224,-0.32532 -1.29031,-3.22579c-0.50226,-0.7617 -0.94116,-1.73769 -1.29031,-2.58063c-0.24689,-0.59605 0,-1.29031 0,-1.29031c0,-0.64516 0,-1.29031 0,-1.29031c0,0 0,0 0,-0.64516c0,0 0,0 0,0l0,0l0,0.64516l0,0" id="svg_3" opacity="undefined" stroke="#000" fill="none"/>
  <path d="m159.03189,39.19377c0,0 0,-0.64516 0,-0.64516c0,-0.64516 0,-1.29031 0,-1.29031c0,-0.64516 0,-0.64516 0,-0.64516c0,-0.64516 0,-0.64516 0,-1.29031c0,-0.64516 0,-0.64516 0,-0.64516c0,-0.64516 0,-0.64516 0,-0.64516c0,0 0.64516,-0.64516 0.64516,-0.64516c0,0 0,-0.64516 0,-0.64516c0.64516,-0.64516 0.39827,-1.33942 0.64516,-1.93547c0.34915,-0.84294 0.64516,-0.64516 0.64516,-0.64516c0,0 0,0 0.64516,0c0,0 0.83412,-0.18896 1.29031,-0.64516c0.45619,-0.45619 1.29031,0 1.29031,0c0.64516,0 0.64516,0 0.64516,0c0.64516,0 0.64516,0 1.29031,0c0,0 0.64516,0 1.29031,0c0.64516,0 0.64516,0 1.29031,0c0.64516,0 1.29031,0 1.29031,0c0.64516,0 1.29031,0 1.93547,0c0.64516,0 1.29031,0 1.29031,0c0.64516,0 0.64516,0 0.64516,0c0.64516,0 0.64516,0 1.29031,0c0,0 0.64516,0 0.64516,0c0,0 0.64516,0 0.64516,0.64516c0,0 0.64516,0 0.64516,0c0,0 0,0 0.64516,0c0,0 0,0 0,0c0,0.64516 0.64516,0.64516 0.64516,0.64516c0,0 0.69426,-0.24689 1.29031,0c0.84294,0.34916 0.64516,0.64516 1.29033,0.64516c0,0 0.64516,0.64516 1.29031,0.64516c0,0 0.64516,0.64516 1.29031,0.64516c0,0 0.64516,0.64516 0.64516,0.64516c0.64516,0.64516 0.64516,1.29031 0.64516,1.29031c0,0 0.64516,0.64516 0.64516,0.64516c0.64516,0.64516 0.44681,1.41032 1.29031,2.58063c0.53348,0.74017 0.64516,1.93547 1.29031,2.58063c0.64516,0.64516 1.29031,1.29031 1.29031,1.93547c0,0.64516 0.64516,0.64516 0.64516,0.64516c0,0.64516 -0.24689,0.69427 0,1.29031c0.34915,0.84294 0.64516,1.29031 0.64516,1.93547c0,0 0,0.64516 0,1.29032c0,0 0,0.64516 0,1.29031c0,0.64516 0,1.93547 0,2.58063c0,0 0.64516,0.64516 0.64516,0.64516c0,0 0.64516,1.29032 1.29031,2.58063c0.64516,1.29031 1.29031,1.93547 1.93547,2.58063c0.64516,0.64516 0.64516,0.64516 1.29031,1.29031c0,0 0,0 0,0.64516c0,0 0.94116,0.44738 1.29031,1.29032c0.24689,0.59605 0.64516,0.64516 0.64516,1.29031c0,0 -0.45619,0.18896 0,0.64516c0.45619,0.4562 0.64516,0.64516 0.64516,1.93547c0,0 0.64516,0.64516 0.64516,0.64516c0,0.64516 0,1.29031 0,1.29031c0,1.29031 0,1.93547 0,2.58063c0,0.64516 0,1.93547 0,2.58063c0,0 0,0.64516 0,0.64516c0,0.64516 0,1.29031 0,1.29031c0,0.64516 0,1.29031 0,1.93547c0,0 0,0.64516 0,1.29031c0,0.64516 0,0.64516 0,1.29032c0,0.64516 0,0.64516 0,1.29031c0,0 0,0 0,0.64516c0,0 0,0 0,0.64516c0,0 0,0.64516 0,0.64516c0,0 0,0 0,0.64516c0,0 0,0.64516 0,0.64516c0,0.64516 0,1.29031 0,1.29031c0,0.64516 0,0.64516 0,1.29031c0,0 -0.18896,0.18896 -0.64516,0.64516c-0.45619,0.45619 -1.30757,1.14209 -1.93547,1.29031c-1.40402,0.33144 -1.93547,1.29031 -2.58063,1.29031c0,0 -0.44737,0.296 -1.29031,0.64516c-0.59605,0.24689 -1.29031,0 -1.93547,0c-0.64516,0 -1.29031,0.64516 -1.29031,0.64516c-0.64516,0 -0.69426,-0.24689 -1.29031,0c-0.84294,0.34916 -1.84045,1.40199 -2.58063,1.93548c-1.1703,0.84351 -1.93547,1.29031 -2.58063,1.93547c-0.64516,0.64516 -1.33942,1.04343 -1.93547,1.29031c-0.84296,0.34916 -0.44682,1.41032 -1.29033,2.58063c-0.53348,0.74017 -0.64516,1.29031 -0.64516,1.29031c0,0.64516 -0.64516,0.64516 -0.64516,0.64516c-0.64516,0 -1.96046,-0.31003 -3.87094,0c-2.01382,0.3268 -5.16125,1.29031 -6.45157,1.29031c-1.29031,0 -1.93547,0.64516 -2.58063,0.64516c-0.64516,0 -1.29031,0 -2.58063,0c-0.64516,0 -1.29031,0 -1.93547,0c-1.29031,0 -1.93547,0 -3.87094,0c-0.64516,0 -1.29031,0 -1.93547,0c-1.29031,0 -1.29031,-0.64516 -1.93549,-0.64516c0,0 0,0 0,0c0,0 0,0 0,-1.29031c0,0 0.19835,0.76516 -0.64516,1.93547c-0.53348,0.74017 -0.99387,1.96999 -1.29031,3.22579c-0.33145,1.40402 -1.15474,2.63123 -1.93547,4.5161c-0.55206,1.3328 -2.04715,2.48562 -2.58063,3.22578c-0.84351,1.17031 -1.09196,2.05547 -1.93547,3.22578c-0.53348,0.74017 -1.29031,1.29031 -1.93547,1.93547c-0.64516,0.64516 -0.64516,0.64516 -1.29031,1.29032c0,0 -0.64516,0.64516 -1.29031,1.29031c-0.64516,0.64516 -2.07204,2.39619 -3.87094,3.87094c-1.41118,1.15689 -2.48561,2.6923 -3.22578,3.22578c-1.1703,0.84351 -1.93547,1.29031 -2.58063,1.93547c-0.64516,0.64516 -0.69426,1.04343 -1.29031,1.29031c-0.84294,0.34915 -0.76517,0.44679 -1.93548,1.29031c-0.74017,0.53348 -1.09253,0.94116 -1.93547,1.29031c-0.59605,0.24689 -1.33942,0.39827 -1.93547,0.64516c-0.84294,0.34915 -1.09253,0.94116 -1.93547,1.29031c-0.59605,0.24689 -1.29031,0.64516 -1.93548,1.29031c-0.64516,0.64516 -1.09252,1.58632 -1.93547,1.93549c-0.59605,0.24689 -1.29031,0.64516 -1.93547,0.64516l0,0.64516l0,0l0,0" id="svg_4" opacity="undefined" stroke="#000" fill="none"/>
  <path d="m97.09679,79.83868c0,0 0,0 0,0.64516c0,1.29031 0.14822,1.95273 0,2.58063c-0.33144,1.40402 -0.95887,2.46692 -1.29031,3.87094c-0.14822,0.6279 -0.296,1.09253 -0.64516,1.93547c-0.24689,0.59605 0,0.64516 0,1.29031c0,0 -0.64516,0.64516 -0.64516,0.64516c0,0.64516 0.24689,1.33942 0,1.93547c-0.34916,0.84294 -0.64516,1.29031 -0.64516,1.93547c0,0.64516 0,1.29031 0,1.93547c0,0 -0.39828,0.69427 -0.64516,1.29031c-0.34916,0.84294 -0.18896,0.83412 -0.64516,1.29031c-0.45619,0.45619 -0.64516,0 -1.29031,0.64516c0,0 -0.44737,0.296 -1.29031,0.64516c-0.59605,0.24689 -0.74338,0.15137 -1.93547,0.64516c-0.84294,0.34916 -1.33942,0.39827 -1.93547,0.64516c-0.84294,0.34916 -1.93547,0.64516 -2.58063,0.64516c-0.64516,0 -1.33942,-0.24689 -1.93547,0c-0.84294,0.34916 -1.29031,0.64516 -1.93547,0.64516c-0.64516,0 -1.09254,0.296 -1.93548,0.64516c-0.59605,0.24689 -1.93547,0 -2.58063,0c-0.64516,0 -1.93547,0 -2.58063,0c-0.64516,0 -1.29031,0 -1.93547,0c-0.64516,0 -0.83412,-0.83412 -1.29031,-1.29031c-0.45619,-0.45619 -0.94115,-1.09253 -1.29031,-1.93547c-0.24689,-0.59605 -0.64516,-1.29031 -0.64516,-1.93547c0,-0.64516 -0.64516,-1.29031 -0.64516,-1.93547c0,-0.64516 0.19835,-1.41032 -0.64516,-2.58063c-0.53349,-0.74017 -0.18896,-1.47928 -0.64516,-1.93547c-0.45619,-0.45619 -0.64516,-0.64516 -0.64516,-1.29031c0,0 -0.64516,-0.64516 -0.64516,-0.64516c0,0 0,-0.64516 0,-0.64516c0,0 0,0 0,-0.64516c0,0 -0.64515,0 -0.64515,0l0,0l0,0" id="svg_5" opacity="undefined" stroke="#000" fill="none"/>
  <path d="m121.61277,93.38698c0,0 -0.64516,0 -1.29031,0c-0.64516,0 -0.64516,0.64516 -1.93548,0.64516c-0.64516,0 -0.69427,0.39827 -1.29031,0.64516c-0.84294,0.34916 -0.83412,0.83412 -1.29031,1.29031c-0.45619,0.45619 -0.76516,0.4468 -1.93547,1.29031c-0.74017,0.53349 -1.29031,1.29031 -1.93547,1.93547c-0.64516,0.64516 -1.33942,1.04343 -1.93547,1.29031c-0.84294,0.34916 -1.09253,0.94115 -1.93547,1.29031c-0.59605,0.24689 -1.93548,0.64516 -3.22579,0.64516c-0.64516,0 -1.93547,0 -3.22578,0c-0.64516,0 -0.64516,0 -1.29031,0c-0.64516,0 -0.64516,0 -1.29031,0c0,0 -0.64516,0 -0.64516,0c0,0 -0.64516,0 -0.64516,0c0,0 -0.64516,0 -1.29031,0c0,0 -0.44737,-0.296 -1.29031,-0.64516c-0.59605,-0.24689 -0.64516,0 -1.29031,-0.64516c0,0 0,0 -0.64516,-0.64516c0,0 0,0 0,0c-0.64516,0 -0.64516,-0.64516 -0.64516,-0.64516l0,0l0,0" id="svg_6" opacity="undefined" stroke="#000" fill="none"/>
  <path d="m84.19365,110.80622c0,0 0,0 0,0.64516c0,0 0,0 0,0c0,0.64516 0,1.29031 0,1.93547c0,0.64516 0,1.93547 0,3.22578c0,0.64516 0,0.64516 0,1.29032c0,0 0,0 0.64516,0c0,0 0,0.64516 0,0.64516c0,0 -0.64516,0 -0.64516,0c-1.29031,0 -1.93547,0 -2.58063,0c0,0 0.45619,0.83412 0,1.29031c-0.45619,0.45619 -0.64516,0.64516 -0.64516,1.29031c0,0.64516 -0.64516,1.29031 -0.64516,1.29031c0,0.64516 0,1.29031 0,1.93547c0,0.64516 0,1.29031 0,1.29031c0,0 0,0.64516 0,0.64516c0,0.64516 0,0.64516 0,1.29031c0,0 -0.24689,0.04911 0,0.64516c0.34916,0.84294 0.18896,0.83412 0.64516,1.29031c0.45619,0.45619 0.64516,0 0.64516,0.64516c0,0 0,0 0.64516,0.64516c0,0 0.18896,-0.45619 0.64516,0c0.45619,0.45619 -0.64516,0.64516 -0.64516,0.64516c-1.29031,0.64516 -2.23147,0.44737 -2.58063,1.29031c-0.24689,0.59605 -0.64516,0.64516 -0.64516,0.64516c0,0.64516 -0.18896,0.18896 -0.64516,0.64516c-0.45619,0.45619 0,0.64516 0,1.29031l0,0l0,0l0,0" id="svg_7" opacity="undefined" stroke="#000" fill="none"/>
  <path d="m31.93591,72.74194c0.64516,0 0.83412,-0.45619 1.29031,0c0.4562,0.45619 0,0.64516 0.64516,0.64516c0.64516,0 1.29031,0 1.93547,0c1.29032,0 2.58063,0 3.22579,0c1.29031,0 1.93547,0 2.58063,0c0,0 0.64516,0 0.64516,0c0.64516,0 0.64516,0 1.29032,0c0.64516,0 1.33942,0.24689 1.93547,0c0.84294,-0.34916 0.64516,-0.64516 1.29031,-1.29031l0,0l0,0" id="svg_8" opacity="undefined" stroke="#000" fill="none"/>
  <path d="m151.93515,80.48383c0,0 0.0491,-0.24689 0.64516,0c0.84294,0.34916 1.29033,0.64516 1.93549,0.64516c0.64516,0 1.93547,0.64516 2.58063,0.64516c1.29031,0 1.93547,0 3.22578,0c0.64516,0 1.29031,0 2.58063,0c0,0 1.29031,0 1.93547,0c1.29031,0 3.27756,-0.20048 5.16125,-0.64516c1.40402,-0.33144 1.93547,-0.64516 2.58063,-0.64516l0,0l0,0l0,0" id="svg_9" opacity="undefined" stroke="#000" fill="none"/>
  <path d="m128.7095,92.09666c0,0 0,-0.64516 0,-1.29031c0,-0.64516 0.56622,-1.97806 1.29031,-3.22579c1.16756,-2.01191 1.93547,-2.58063 2.58063,-3.22578c0.64516,-0.64516 0.64516,-0.64516 0.64516,-0.64516c0.64516,-0.64516 0.64516,-0.64516 0.64516,-0.64516c0.64516,0 0.64516,-0.64516 1.29031,-1.29031c0.64516,-0.64516 0.64516,-0.64516 1.29031,-1.29031c0,0 0.64516,-0.64516 1.29031,-1.29031c0.64516,-0.64516 1.93547,-1.93547 3.22578,-3.22579c1.29031,-1.29031 1.93547,-1.93547 1.93547,-1.93547l0,0" id="svg_10" opacity="undefined" stroke="#000" fill="none"/>
  <path d="m184.83818,74.67741c0,0 0.64516,0 0.64516,0c0,0 0.64516,0 0.64516,0c0,0 0,0 0.64516,0l0,0l0,0l0,0" id="svg_11" opacity="undefined" stroke="#000" fill="none"/>
  <path d="m18.38761,63.06459c0,0 0.64516,0 0.64516,0c0.64516,0 1.32483,0.29646 2.58063,0c1.40402,-0.33144 3.22579,-0.64516 3.87094,-1.29031l0.64516,0l0,0l0.64516,0" id="svg_12" opacity="undefined" stroke="#000" fill="none"/>
  <path d="m119.67729,108.22559c0,0.64516 0,1.29031 0,2.58063c0,1.29031 -0.12,1.73711 -1.29031,2.58063c-0.74017,0.53349 -1.73769,0.94115 -2.58063,1.29031c-0.59605,0.24689 -1.29031,0.64516 -1.29031,0.64516c0,0 -0.09501,0.75683 0.64516,1.29031c1.17031,0.84351 2.58063,0.64516 3.87094,0.64516c1.29032,0 2.58064,0 3.22579,0c0.64516,0 1.29031,0 1.29031,0c0,0 0,0 0,0c0,0.64516 0,0.64516 -0.64516,1.29032c-0.64516,0.64516 -1.8222,0.70831 -2.58063,1.93547c-0.67836,1.0976 -0.8629,2.13548 -1.93548,3.87094c-0.47968,0.77612 -0.64516,1.29031 -1.29031,1.93547c0,0 0,0.64516 -0.64516,0.64516c0,0 -0.18896,0.18896 -0.64516,0.64516c-0.45619,0.45619 -0.64516,0 -0.64516,0c0.64516,0.64516 1.29031,0.64516 1.29031,0.64516c0.64516,0 0.64516,0.64516 0.64516,0.64516c0,0 0,0 -0.64516,0.64516l0,0l0,0.64516l0,0" id="svg_13" opacity="undefined" stroke="#000" fill="none"/>
  <path d="m129.99982,95.96761c0,0 0.15765,1.94514 0,3.22578c-0.32501,2.64012 -1.29031,5.16126 -1.29031,7.09673l0,0.64516l-0.64516,0l0,0" id="svg_14" opacity="undefined" stroke="#000" fill="none"/>
  <path d="m75.8066,116.61263c0,0 0.64516,0 1.29031,0c0.64516,0 0.64516,0 1.29031,0c0,0 0,0 0.64516,0c0,0 0,0 0.64516,0c1.29031,0 2.62974,0.24689 3.22578,0c0.84294,-0.34916 1.30757,-1.14209 1.93547,-1.29031c1.40402,-0.33144 1.95273,-0.49693 2.58063,-0.64516c1.40402,-0.33144 1.93547,-0.64516 2.58063,-0.64516c0.64516,0 0.64516,0 0.64516,0c0,0 0.64516,0 0.64516,0l0,-0.64516l0,-0.64516l0,-0.64516" id="svg_15" opacity="undefined" stroke="#000" fill="none"/>
  <path d="m73.22598,128.87062c0.64516,0 0.64516,0 1.93547,0c0,0 0.64516,0 1.29031,0c0,0 0.64516,0 0.64516,0c0.64516,0 1.29031,0 1.29031,0c0,0 0.64516,0 0.64516,0c0,0 0.64516,0 0.64516,0c0.64516,0 1.29031,0 3.22578,0c0.64516,0 2.58063,0 4.5161,0c1.93547,0 2.58063,0 3.22578,0l0.64516,0l0,-0.64516" id="svg_16" opacity="undefined" stroke="#000" fill="none"/>
  <path d="m47.41969,25.64547c0,0 0,0 0,0c0.64516,0 0.64516,0 0.64516,0c0,0 0.64516,0 0.64516,0c0.64516,0 0.64516,0.64516 1.29032,1.29031c0,0 0.64516,0.64516 1.29031,0.64516c0,0 0,0.64516 0.64516,0.64516c0,0 0.18896,0.18896 0.64516,0.64516c0.4562,0.45619 0.64516,0.64516 0.64516,1.29031c0,0 0.18896,0.18896 0.64516,0.64516c0.4562,0.45619 0.18896,0.83412 0.64516,1.29031c0.4562,0.4562 0,0.64516 0,0.64516l0,0.64516" id="svg_17" opacity="undefined" stroke="#000" fill="none"/>
  <path d="m164.8383,30.16157c0,0.64516 0,0.64516 0,1.29031c0,0.64516 0.45619,0.83412 0,1.29031c-0.45619,0.4562 -0.64516,0 -0.64516,0.64516c0,0 -0.29601,-0.19778 -0.64516,0.64516c-0.24689,0.59605 0,0.64516 0,0.64516c0,0.64516 0,0.64516 -0.64516,1.29031c0,0 0,0.64516 0,0.64516c0,0.64516 0.45619,0.83412 0,1.29031c-0.45619,0.4562 -0.64516,0.64516 -0.64516,0.64516c0,0.64516 0,0.64516 0,0.64516l0,0.64516l0,0" id="svg_18" opacity="undefined" stroke="#000" fill="none"/>
  <path d="m171.93503,31.45188c-0.64516,0 -0.64516,0 -1.29031,0.64516c-0.64516,0.64516 -0.94116,0.44738 -1.29031,1.29032c-0.24689,0.59605 -0.64516,0.64516 -1.29031,1.29031c0,0 -0.18896,0.18896 -0.64516,0.64516c-0.45619,0.4562 0,0.64516 0,0.64516c-0.64516,0.64516 -0.64516,0.64516 -0.64516,1.29031c0,0 0.45619,0.83412 0,1.29031c-0.45619,0.4562 -0.64516,0.64516 -0.64516,1.29032l0,0l0,0l0,0.64516" id="svg_19" opacity="undefined" stroke="#000" fill="none"/>
  <path d="m54.51641,23.71c0,0.64516 0,0.64516 0,1.29032c0,0.64516 -0.24689,1.98458 0,2.58063c0.34916,0.84294 1.04342,1.33943 1.29031,1.93547c0.34916,0.84294 0.64516,0.64516 0.64516,1.29031l0,0l0,0" id="svg_20" opacity="undefined" stroke="#000" fill="none"/>
  <path d="m85.48396,69.51616c0,0 0,0 0,0c0.64516,0 0.64516,0 1.29031,0c0.64516,0 0.64516,0 1.29031,0c0.64516,0 1.29031,0 1.29031,0c0,0 0,0 0,0c0.64516,0 1.29031,-0.64516 1.93547,-0.64516c0.64516,0 0.83412,-0.18896 1.29031,-0.64516c0.45619,-0.45619 1.30758,0.14822 1.93548,0c1.40402,-0.33144 1.98608,-0.50957 3.87094,-1.29031c1.3328,-0.55206 2.58063,-1.29031 3.22578,-1.29031c0,0 0.64516,0 0.64516,0l0,-0.64516" id="svg_21" opacity="undefined" stroke="#000" fill="none"/>
 </g>
</svg>