<svg width="100" height="100" xmlns="http://www.w3.org/2000/svg">
 <!-- Created with Method Draw - http://github.com/duopixel/Method-Draw/ -->
 <g id="Layer_1">
  <title>Layer 1</title>
  <path d="m17.94872,49.74359c0.51282,0 0.42244,-0.24936 1.53846,-0.51282c0.4991,-0.11782 0.79444,-1.00265 2.5641,-1.53846c0.98163,-0.29721 1.44807,-0.76218 2.5641,-1.02564c0.4991,-0.11782 1.53846,-0.51282 2.5641,-0.51282c0.51282,0 1.02564,0 1.02564,0c0.51282,0 0.51282,0 0.51282,0c0.51282,0 0.51282,0 1.02564,0c1.02564,0 1.53846,0 2.5641,0c0.51282,0 1.06467,0.31657 1.53846,0.51282c0.67003,0.27754 1.02564,0.51282 1.53846,1.02564c0.51282,0.51282 0.66302,0.1502 1.02564,0.51282c0.36262,0.36262 0.4373,1.11441 1.02564,1.53846c0.93025,0.67049 0.86843,1.26092 1.53846,1.53846c0.47379,0.19625 0.66302,0.1502 1.02564,0.51282c0.72524,0.72524 0.51282,1.53846 1.02564,2.05128c0.51282,0.51282 0.51282,1.02564 1.02564,1.53846c0.51282,0.51282 1.02564,1.53846 1.53846,2.05128c0,0 0.51282,0.51282 1.02564,1.02564c0.51282,0.51282 1.02564,1.02564 1.53846,1.53846c0.51282,0.51282 0.8294,1.06468 1.02564,1.53846c0.27753,0.67003 0.86843,1.26093 1.53846,1.53846c0.47379,0.19625 1.02564,0.51282 2.05128,0.51282c0.51282,0 1.02564,0 1.53846,0c1.02564,0 1.53846,0 2.05128,0c0.51282,0 1.02564,0 1.53846,0c0.51282,0 0.51282,0 1.02564,0c0,0 0.60962,-0.21297 1.02564,-0.51282c1.31558,-0.94822 1.26092,-1.89407 1.53846,-2.5641c0.19625,-0.47379 0.51282,-1.02564 0.51282,-1.02564c0,0 0,0 0,-0.51282c0,-0.51282 0,-1.02564 0,-1.53846c0,-0.51282 0,-0.51282 0,-0.51282c0,-0.51282 0,-0.51282 0,-1.53846c0,-0.51282 0,-1.53846 0,-2.05128c0,-0.51282 0,-0.51282 0,-0.51282c0,-0.51282 0,-0.51282 0,-0.51282c0,0 0,-0.51282 0,-1.53846c0,-0.51282 0.76218,-1.44807 1.02564,-2.5641c0.11782,-0.4991 0,-1.02564 0,-1.02564c0.51282,-0.51282 1.02564,-1.02564 1.02564,-1.53846c0,0 0.51282,0 0.51282,0c1.02564,0 2.05128,0 3.07693,0c0.51282,0 1.02563,0 1.53846,0c0.51282,0 0.86843,-0.23528 1.53846,-0.51282c0.47378,-0.19625 1.02564,0 1.53846,0c0.51283,0 1.02564,0 1.02564,-0.51282c0,0 0.51282,0 0.51282,0c0.51283,-0.51282 0.51283,-0.51282 0.51283,-0.51282c0,0 0.31657,-0.03904 0.51282,-0.51282c0.27754,-0.67004 0.86843,-1.77375 1.53846,-2.05128c0.47379,-0.19625 0.51283,0 0.51283,-0.51282c0,-0.51282 0,-1.02564 0,-2.05128c0,-1.53846 0,-2.5641 0,-3.58974c0,-0.51282 0,-0.51282 0,-1.02564c0,0 0.15721,-0.7481 -0.51283,-1.02564c-0.47379,-0.19625 -0.31657,-0.55185 -0.51282,-1.02564c-0.27753,-0.67003 -0.51282,-1.02564 -1.02564,-1.53846c-0.51282,-0.51282 -1.38741,-1.71599 -2.5641,-2.5641c-0.93025,-0.67049 -2.05128,-1.02564 -3.07692,-1.53846c-1.02564,-0.51282 -2.98689,-0.56302 -3.58974,-1.53846c-0.2696,-0.43623 -0.1502,-0.66302 -0.51282,-1.02564c-0.36262,-0.36262 -1.02564,-0.51282 -1.53846,-1.02564c-1.02564,-1.02564 -2.14667,-0.86797 -3.07692,-1.53846c-0.58834,-0.42406 -1.69744,-0.68589 -3.07692,-1.53846c-0.61692,-0.38128 -1.38125,-0.7481 -2.05128,-1.02564c-0.47378,-0.19625 -0.51282,0 -0.51282,0c0,0.51282 0,1.02564 0,1.53846c0,0.51282 0,0.51282 0,1.02564c0,0.51282 0,1.02564 0,1.53846c0,0.51282 0,1.02564 0,1.53846c0,0.51282 0,0.51282 0,0.51282c-0.51282,0.51282 -1.53846,0.51282 -2.56411,0.51282c-1.02564,0 -2.05128,0 -2.5641,0c-1.02564,0 -1.5775,0.19625 -2.05128,0c-0.67003,-0.27754 -0.8294,-0.55186 -1.02564,-1.02564c-0.27753,-0.67003 -1.02564,-1.53846 -1.53846,-2.5641c-0.51282,-1.02564 -0.51282,-1.53846 -0.51282,-1.53846c0,-0.51282 0,-0.51282 0,-0.51282c0,-0.51282 0,-0.51282 0,-1.53846c0,-1.02564 0,-2.05128 0,-3.58974c0,-1.53846 0.45008,-2.59795 1.02564,-3.58974c0.92806,-1.59922 1.38079,-2.65949 2.05128,-3.58974c0.42405,-0.58834 1.02564,-0.51282 1.02564,-1.02564c0,0 0.51282,0 1.02564,0c0,0 0.55186,-0.19625 1.02564,0c0.67003,0.27754 1.02564,0.51282 2.5641,0.51282c1.02564,0 2.57735,0.34853 3.58974,0.51282c1.60074,0.25976 3.07692,1.02564 4.10256,2.05128c1.02564,1.02564 2.05128,2.05128 3.07692,3.07692c0.51282,0.51282 0.86843,0.74811 1.53846,1.02564c0.47378,0.19625 0.8746,0.69035 2.05128,1.53846c1.8605,1.34097 3.58974,1.53846 4.61538,2.05128c1.02564,0.51282 1.61653,0.63315 2.5641,1.02564c0.67004,0.27754 1.02564,1.02564 1.53846,1.53846c0.51283,0.51282 1.63386,0.86797 2.56411,1.53846c0.58834,0.42405 1.96124,1.07584 2.5641,2.05128c0.26961,0.43623 0.51282,1.02564 0.51282,1.53846c0,0 -0.10777,1.06587 0.51282,2.5641c0.87765,2.11883 1.43069,3.62997 2.05128,5.12821c0.43882,1.05941 1.00265,1.82008 1.53846,3.58974c0.29722,0.98163 0.76218,1.44808 1.02564,2.5641c0.11782,0.4991 0.395,1.55218 0.51283,2.05128c0.26346,1.11602 0.7481,0.86843 1.02563,1.53846c0.19625,0.47379 0,1.02564 0,1.02564c0.51283,0.51282 0.51283,0.51282 0.51283,1.02564c0,0 0,0.51282 0,0.51282c0,0 0,0.51282 0,0.51282c0,0 0,0.51282 0,1.02564c0,0.51282 -0.60821,0.86797 -1.53846,1.53846c-0.58835,0.42406 -1.63386,0.86797 -2.56411,1.53846c-0.58834,0.42405 -1.5659,0.78999 -2.5641,1.02564c-1.11602,0.26346 -2.06499,0.395 -2.5641,0.51282c-1.11602,0.26346 -1.06467,0.31657 -1.53846,0.51282c-0.67003,0.27754 -1.38125,0.7481 -2.05128,1.02564c-0.47379,0.19625 -1.02563,0.51282 -1.02563,0.51282c0,0 0,0 0,0c0,0 0,0.51282 0,0.51282c0,0 0,0.51282 0,1.53846c0,1.02564 -0.2664,3.09679 -0.51283,4.61538c-0.25977,1.60074 -0.76218,2.98654 -1.02564,4.10256c-0.23565,0.99821 -0.23528,1.89407 -0.51282,2.5641c-0.39249,0.94757 -0.27718,1.5659 -0.51282,2.5641c-0.26346,1.11603 -0.86798,1.63385 -1.53847,2.5641c-0.42406,0.58834 -0.72762,1.75327 -1.53846,2.5641c-0.81084,0.81084 -1.53846,1.53847 -2.5641,2.05128c-1.02564,0.51283 -1.97576,1.11441 -2.5641,1.53846c-0.93026,0.67049 -2.0915,0.91788 -3.58974,1.53847c-1.05941,0.43882 -2.5641,0.51282 -4.61538,0.51282c-1.02564,0 -2.57735,0.16429 -3.58974,0c-1.60074,-0.25977 -2.60433,-0.91787 -4.10256,-1.53846c-1.05942,-0.43883 -1.75327,-0.72762 -2.5641,-1.53846c-0.81084,-0.81084 -1.78783,-1.9609 -2.05128,-3.07693c-0.23565,-0.99821 -1.27869,-3.01464 -1.53846,-4.61539c-0.24643,-1.51859 -0.51282,-3.07692 -0.51282,-4.10256c0,-1.02564 0,-1.02564 -0.51282,-1.02564c0,0 -1.02564,0 -2.5641,0c-2.05128,0 -4.10256,0 -6.15385,0c-2.05128,0 -3.09679,-0.24644 -4.61538,0c-1.60074,0.25977 -3.10436,0.78999 -4.10256,1.02564c-1.11603,0.26346 -2.60433,0.91787 -4.10257,1.53846c-1.05942,0.43883 -2.05128,1.02564 -3.07692,1.53847c-1.02564,0.51282 -1.53846,0.51282 -2.05128,1.02563c0,0 -0.51282,0 -0.51282,0c0,0 0,0 0,0c0,0 0,0.51283 0,0.51283l0,0l-0.51282,0l0,0" id="svg_11" opacity="undefined" fill-opacity="null" stroke-opacity="null" stroke-dasharray="null" stroke-width="null" stroke="#000" fill="none"/>
  <path d="m44.61538,24.10256c0,0 0,-1.02564 0,-2.05128c0,-0.51282 0,-1.02564 0,-1.53846c0,0 0,-0.51282 0,-0.51282c0,0 0,-0.51282 0,-0.51282c0,0.51282 0,0.51282 0,0.51282c0,0.51282 0,0.51282 -0.51282,1.02564c-0.51282,0.51282 -0.66302,0.66302 -1.02564,1.02564c-0.36262,0.36262 -0.51282,0.51282 -0.51282,0.51282c0,0 -0.51282,0 -0.51282,-0.51282c0,0 0,0 0,0c0,-0.51282 -0.23528,-0.35561 -0.51282,-1.02564c-0.19625,-0.47378 0,-1.02564 0,-2.05128c0,-0.51282 0,-0.51282 0,-0.51282c0,-0.51282 0,-1.02564 0,-1.53846c0,-1.02564 0.27718,-1.5659 0.51282,-2.5641c0.26346,-1.11603 0.66302,-1.68866 1.02564,-2.05128c0.36262,-0.36262 0.51282,0 1.02564,0c0,0 0,0 0,0c0.51282,0 0.51282,0 1.02564,0c0,0 0,0 0,0c0,0.51282 -0.05303,0.46478 -0.51282,1.02564c-1.17225,1.42991 -1.02564,2.05128 -1.53846,2.5641c0,0 0,0.51282 0,0.51282c0,0 0,0.51282 0,0.51282c0,0 0,0 0,0.51282c0,0 0,0 0,0c0,0.51282 0,0.51282 0,0.51282c0,1.02564 0,2.05128 0,2.5641l0,0l0,0.51282" id="svg_12" opacity="undefined" fill-opacity="null" stroke-opacity="null" stroke-dasharray="null" stroke-width="null" stroke="#000" fill="none"/>
  <path d="m52.30769,23.58974c0.51282,0 0.51282,0 0.51282,0c0.51282,0 0.51282,0 0.51282,-0.51282c0,0 0,0 0,0c0.51282,-0.51282 0.31657,-0.55186 0.51282,-1.02564c0.27754,-0.67003 0.51282,-1.02564 0.51282,-1.02564c0.51282,0 0.51282,0 1.02564,-0.51282c0,0 0,0 0,0c0.51282,0 0.51282,0 0.51282,0l0,0l0,0" id="svg_13" opacity="undefined" fill-opacity="null" stroke-opacity="null" stroke-dasharray="null" stroke-width="null" stroke="#000" fill="none"/>
 </g>
</svg>