<svg width="204" height="204" xmlns="http://www.w3.org/2000/svg">
 <!-- Created with Method Draw - http://github.com/duopixel/Method-Draw/ -->
 <g id="Layer_1">
  <title>Layer 1</title>
  <ellipse ry="31" rx="32" id="svg_1" cy="86.5" cx="100" opacity="undefined" stroke="#000" fill="#fff"/>
  <path d="m73.5,105.5c0,0 -0.29289,0.29289 -1,1c-0.70711,0.70711 -0.29289,0.29289 -1,1c-0.70711,0.70711 -1,1 -2,1c0,0 -1,0 -1,1c0,0 -0.29289,0.29289 -1,1c-0.70711,0.70711 -1,0 -2,1c0,0 0,1 0,1c-1,0 -1,1 -1,1c-1,1 -1,1 -1,2c0,0 0,0 0,0c-1,0 -1,0 -2,0c-1,0 -2,0 -2,0c0,0 0,0 -1,0c0,0 0,0 -1,0c0,0 0,0 -1,0c0,0 0,0 -1,0c-1,0 -2,0 -3,0c0,0 0,0 -1,0c-1,0 -1.69344,-0.4588 -3,-1c-0.92388,-0.38268 -2,0 -3,0c-1,0 -2,0 -3,0c-1,0 -2,0 -2,0c-1,0 -2,0 -3,1c0,0 -1,0 -1,0c0,0 -0.29289,-0.70711 -1,0c-0.70711,0.70711 -1,1 -1,1c0,0 -1,1 -1,1c0,0 -0.29289,0.29289 -1,1c-0.70711,0.70711 -2,1 -2,1c0,0 -1,0 -1,0c-1,0 -2,0 -3,0c0,0 -1,0 -1,0c0,0 -1,0 -1,0c-1,0 -2,0 -3,0c0,0 -0.4588,-0.30656 -1,1c-0.38268,0.92388 -1,2 -1,2c-1,1 -1.4588,1.69344 -2,3c-0.38268,0.92388 0,1 0,2c0,0 -1,0 -1,1l0,1l0,0l0,0" id="svg_4" opacity="undefined" stroke="#000" fill="none"/>
  <path stroke="#000" d="m183.73007,139.28214c0,0 -0.29525,-0.43402 -1.00807,-1.48185c-0.71282,-1.04783 -0.29525,-0.43402 -1.00807,-1.48185c-0.71282,-1.04783 -1.00807,-1.48185 -2.01614,-1.48185c0,0 -1.00807,0 -1.00807,-1.48185c0,0 -0.29525,-0.43402 -1.00807,-1.48185c-0.71282,-1.04783 -1.00807,0 -2.01614,-1.48185c0,0 0,-1.48185 0,-1.48185c-1.00807,0 -1.00807,-1.48185 -1.00807,-1.48185c-1.00807,-1.48185 -1.00807,-1.48185 -1.00807,-2.96369c0,0 0,0 0,0c-1.00807,0 -1.00807,0 -2.01614,0c-1.00807,0 -2.01614,0 -2.01614,0c0,0 0,0 -1.00807,0c0,0 0,0 -1.00807,0c0,0 0,0 -1.00807,0c0,0 0,0 -1.00807,0c-1.00807,0 -2.01614,0 -3.02422,0c0,0 0,0 -1.00807,0c-1.00807,0 -1.70711,0.67987 -3.02422,1.48185c-0.93134,0.56707 -2.01614,0 -3.02422,0c-1.00807,0 -2.01614,0 -3.02422,0c-1.00807,0 -2.01614,0 -2.01614,0c-1.00807,0 -2.01614,0 -3.02422,-1.48185c0,0 -1.00807,0 -1.00807,0c0,0 -0.29525,1.04783 -1.00807,0c-0.71282,-1.04783 -1.00807,-1.48185 -1.00807,-1.48185c0,0 -1.00807,-1.48185 -1.00807,-1.48185c0,0 -0.29525,-0.43402 -1.00807,-1.48185c-0.71282,-1.04783 -2.01614,-1.48185 -2.01614,-1.48185c0,0 -1.00807,0 -1.00807,0c-1.00807,0 -2.01614,0 -3.02422,0c0,0 -1.00807,0 -1.00807,0c0,0 -1.00807,0 -1.00807,0c-1.00807,0 -2.01614,0 -3.02422,0c0,0 -0.4625,0.45427 -1.00807,-1.48185c-0.38577,-1.36905 -1.00807,-2.96369 -1.00807,-2.96369c-1.00807,-1.48185 -1.47058,-2.50942 -2.01614,-4.44554c-0.38577,-1.36905 0,-1.48185 0,-2.96369c0,0 -1.00807,0 -1.00807,-1.48185l0,-1.48185l0,0l0,0" id="svg_6" opacity="undefined" fill="none"/>
  <path d="m89.5,132.5c1,0 1,0 2,0c0,0 0,0 0,0c1,0 1,1 1,1c0,0 0,0 0,0c1,0 1,1 1,1c0,0 0,0 0,0c1,0 1,0 1,1c0,0 0,0 1,0c0,0 0,0 1,0c0,0 0,0 0,0c1,0 1,-1 1,-1c1,-1 1,-1 1,-1c0,0 1,0 1,-1c0,0 0,0 1,0c0,0 0,0 0,0l1,-1l0,0l0,0" id="svg_7" opacity="undefined" fill-opacity="null" stroke-opacity="null" stroke-dasharray="null" stroke-width="null" stroke="#000" fill="none"/>
  <path d="m118.5,131.5c0,0 1,0 2,0c1,0 2.0535,-0.4595 4,0c2.17625,0.51374 3.15224,0.23463 5,1c1.30656,0.5412 1,1 1,1c1,0 1,0 1,0c1,0 1,0 2,0c0,0 1,0 1,0c1,0 1,0 2,0c2,0 3,0 4,0c2,0 3,0 5,0c1,0 1,0 3,0c1,0 2.07612,-0.38268 3,0c1.30656,0.5412 2,1 3,1c1,0 2,0 3,0c0,0 1,0 2,0c0,0 1,0 1,0c0,0 0,0 1,0c0,0 1.07613,0.38268 2,0c1.30656,-0.5412 2,-1 2,-2c0,0 0,0 1,0l0,0l0,0l1,0" id="svg_8" opacity="undefined" fill-opacity="null" stroke-opacity="null" stroke-dasharray="null" stroke-width="null" stroke="#000" fill="none"/>
  <path d="m73.5,131.5c-1,0 -1,0 -2,0c-2,0 -4.0535,-0.4595 -6,0c-2.17625,0.51374 -3.69344,1.4588 -5,2c-1.84776,0.76537 -3,0 -4,0c-2,0 -3.07612,-0.38268 -4,0c-1.30656,0.5412 -2,1 -3,1c-1,0 -2,0 -3,0c-1,0 -2,0 -3,0c-1,0 -2,1 -3,1c-1,0 -2,0 -3,0c-1,0 -3,0 -3,0c-2,0 -1.69344,-0.4588 -3,-1c-0.92388,-0.38268 -2,0 -3,-1c0,0 -1,-1 -1,-1l0,0l0,0" id="svg_9" opacity="undefined" fill-opacity="null" stroke-opacity="null" stroke-dasharray="null" stroke-width="null" stroke="#000" fill="none"/>
  <path d="m97.5,147.5c0,0 0,0 0,1c0,1 0,2 0,2c0,1 0,1 0,2c0,1 0,2 0,2c0,1 0,1 0,1c0,1 0,1 0,2c0,0 0,0 0,1c0,0 0,0 0,1c0,0 0,0 0,1c0,0 0,0 0,1c0,0 0,1 0,1c0,1 0,1 0,2c0,0 0,0 0,1c0,0 -1,1 -1,2c0,1 -1,2 -1,3c0,1 0.38268,1.07613 0,2c-0.5412,1.30656 -0.29289,1.29289 -1,2c-0.70711,0.70711 -1,1 -1,1c0,0 0,0 0,1l0,0l0,1" id="svg_10" opacity="undefined" fill-opacity="null" stroke-opacity="null" stroke-dasharray="null" stroke-width="null" stroke="#000" fill="none"/>
  <ellipse ry="31" rx="32" id="svg_14" cy="86.5" cx="100" opacity="undefined" stroke="#000" fill="#fff"/>
  <path d="m73.5,105.5c0,0 -0.29289,0.29289 -1,1c-0.70711,0.70711 -0.29289,0.29289 -1,1c-0.70711,0.70711 -1,1 -2,1c0,0 -1,0 -1,1c0,0 -0.29289,0.29289 -1,1c-0.70711,0.70711 -1,0 -2,1c0,0 0,1 0,1c-1,0 -1,1 -1,1c-1,1 -1,1 -1,2c0,0 0,0 0,0c-1,0 -1,0 -2,0c-1,0 -2,0 -2,0c0,0 0,0 -1,0c0,0 0,0 -1,0c0,0 0,0 -1,0c0,0 0,0 -1,0c-1,0 -2,0 -3,0c0,0 0,0 -1,0c-1,0 -1.69344,-0.4588 -3,-1c-0.92388,-0.38268 -2,0 -3,0c-1,0 -2,0 -3,0c-1,0 -2,0 -2,0c-1,0 -2,0 -3,1c0,0 -1,0 -1,0c0,0 -0.29289,-0.70711 -1,0c-0.70711,0.70711 -1,1 -1,1c0,0 -1,1 -1,1c0,0 -0.29289,0.29289 -1,1c-0.70711,0.70711 -2,1 -2,1c0,0 -1,0 -1,0c-1,0 -2,0 -3,0c0,0 -1,0 -1,0c0,0 -1,0 -1,0c-1,0 -2,0 -3,0c0,0 -0.4588,-0.30656 -1,1c-0.38268,0.92388 -1,2 -1,2c-1,1 -1.4588,1.69344 -2,3c-0.38268,0.92388 0,1 0,2c0,0 -1,0 -1,1l0,1l0,0l0,0" id="svg_15" opacity="undefined" stroke="#000" fill="none"/>
  <path stroke="#000" d="m183.73007,139.28214c0,0 -0.29526,-0.43401 -1.00808,-1.48184c-0.71281,-1.04783 -0.29525,-0.43402 -1.00807,-1.48185c-0.71282,-1.04782 -1.00807,-1.48184 -2.01614,-1.48184c0,0 -1.00808,0 -1.00808,-1.48185c0,0 -0.29525,-0.43402 -1.00807,-1.48184c-0.71282,-1.04783 -1.00807,0 -2.01614,-1.48185c0,0 0,-1.48184 0,-1.48184c-1.00807,0 -1.00807,-1.48185 -1.00807,-1.48185c-1.00808,-1.48184 -1.00808,-1.48184 -1.00808,-2.96369c0,0 0,0 0,0c-1.00807,0 -1.00807,0 -2.01614,0c-1.00807,0 -2.01615,0 -2.01615,0c0,0 0,0 -1.00807,0c0,0 0,0 -1.00807,0c0,0 0,0 -1.00807,0c0,0 0,0 -1.00808,0c-1.00807,0 -2.01614,0 -3.02421,0c0,0 0,0 -1.00807,0c-1.00808,0 -1.70711,0.67987 -3.02422,1.48185c-0.93134,0.56707 -2.01615,0 -3.02422,0c-1.00807,0 -2.01614,0 -3.02421,0c-1.00808,0 -2.01615,0 -2.01615,0c-1.00807,0 -2.01614,0 -3.02422,-1.48185c0,0 -1.00807,0 -1.00807,0c0,0 -0.29525,1.04783 -1.00807,0c-0.71282,-1.04783 -1.00807,-1.48184 -1.00807,-1.48184c0,0 -1.00808,-1.48185 -1.00808,-1.48185c0,0 -0.29525,-0.43402 -1.00807,-1.48184c-0.71282,-1.04783 -2.01614,-1.48185 -2.01614,-1.48185c0,0 -1.00807,0 -1.00807,0c-1.00808,0 -2.01615,0 -3.02422,0c0,0 -1.00807,0 -1.00807,0c0,0 -1.00808,0 -1.00808,0c-1.00807,0 -2.01614,0 -3.02421,0c0,0 -0.46251,0.45427 -1.00807,-1.48185c-0.38577,-1.36904 -1.00808,-2.96369 -1.00808,-2.96369c-1.00807,-1.48184 -1.47057,-2.50941 -2.01614,-4.44553c-0.38577,-1.36905 0,-1.48185 0,-2.96369c0,0 -1.00807,0 -1.00807,-1.48185l0,-1.48184l0,0l0,0" id="svg_16" opacity="undefined" fill="none"/>
  <path d="m89.5,132.5c1,0 1,0 2,0c0,0 0,0 0,0c1,0 1,1 1,1c0,0 0,0 0,0c1,0 1,1 1,1c0,0 0,0 0,0c1,0 1,0 1,1c0,0 0,0 1,0c0,0 0,0 1,0c0,0 0,0 0,0c1,0 1,-1 1,-1c1,-1 1,-1 1,-1c0,0 1,0 1,-1c0,0 0,0 1,0c0,0 0,0 0,0l1,-1l0,0l0,0" id="svg_17" opacity="undefined" fill-opacity="null" stroke-opacity="null" stroke-dasharray="null" stroke-width="null" stroke="#000" fill="none"/>
  <path d="m118.5,131.5c0,0 1,0 2,0c1,0 2.0535,-0.4595 4,0c2.17625,0.51374 3.15224,0.23463 5,1c1.30656,0.5412 1,1 1,1c1,0 1,0 1,0c1,0 1,0 2,0c0,0 1,0 1,0c1,0 1,0 2,0c2,0 3,0 4,0c2,0 3,0 5,0c1,0 1,0 3,0c1,0 2.07612,-0.38268 3,0c1.30656,0.5412 2,1 3,1c1,0 2,0 3,0c0,0 1,0 2,0c0,0 1,0 1,0c0,0 0,0 1,0c0,0 1.07613,0.38268 2,0c1.30656,-0.5412 2,-1 2,-2c0,0 0,0 1,0l0,0l0,0l1,0" id="svg_18" opacity="undefined" fill-opacity="null" stroke-opacity="null" stroke-dasharray="null" stroke-width="null" stroke="#000" fill="none"/>
  <path d="m73.5,131.5c-1,0 -1,0 -2,0c-2,0 -4.0535,-0.4595 -6,0c-2.17625,0.51374 -3.69344,1.4588 -5,2c-1.84776,0.76537 -3,0 -4,0c-2,0 -3.07612,-0.38268 -4,0c-1.30656,0.5412 -2,1 -3,1c-1,0 -2,0 -3,0c-1,0 -2,0 -3,0c-1,0 -2,1 -3,1c-1,0 -2,0 -3,0c-1,0 -3,0 -3,0c-2,0 -1.69344,-0.4588 -3,-1c-0.92388,-0.38268 -2,0 -3,-1c0,0 -1,-1 -1,-1l0,0l0,0" id="svg_19" opacity="undefined" fill-opacity="null" stroke-opacity="null" stroke-dasharray="null" stroke-width="null" stroke="#000" fill="none"/>
  <path d="m97.5,147.5c0,0 0,0 0,1c0,1 0,2 0,2c0,1 0,1 0,2c0,1 0,2 0,2c0,1 0,1 0,1c0,1 0,1 0,2c0,0 0,0 0,1c0,0 0,0 0,1c0,0 0,0 0,1c0,0 0,0 0,1c0,0 0,1 0,1c0,1 0,1 0,2c0,0 0,0 0,1c0,0 -1,1 -1,2c0,1 -1,2 -1,3c0,1 0.38268,1.07613 0,2c-0.5412,1.30656 -0.29289,1.29289 -1,2c-0.70711,0.70711 -1,1 -1,1c0,0 0,0 0,1l0,0l0,1" id="svg_20" opacity="undefined" fill-opacity="null" stroke-opacity="null" stroke-dasharray="null" stroke-width="null" stroke="#000" fill="none"/>
  <ellipse ry="92.5" rx="90" id="svg_22" cy="103" cx="102" opacity="undefined" fill-opacity="null" stroke-opacity="null" stroke-dasharray="null" stroke-width="null" stroke="#000" fill="none"/>
  <path d="m89.5,182.5c-1,0 -1,0 -1,0c-1,0 -1,0 -1,0c-1,0 -1,0 -1,0c-1,0 -1.07612,-0.38269 -2,0c-1.30656,0.5412 -1,1 -2,1c0,0 -1,0 -2,1c0,0 0,0 0,0c-1,0 -1,0 -2,0c-1,0 -1,0 -1,0c-1,0 -1,0 -1,0c-1,1 -1,1 -2,1c0,0 0,0 0,0c-1,0 -1,0 -2,0l0,0l-1,0l0,0" id="svg_23" opacity="undefined" fill-opacity="null" stroke-opacity="null" stroke-dasharray="null" stroke-width="null" stroke="#000" fill="none"/>
  <path d="m101.5,181.5c0,1 1,1 1,1c1,1 1,1 1,1c0,0 0,0 1,0c0,0 1,0 1,0c0,0 1,0 1,0c1,0 2,0 3,0c1,0 2,0 2,0c1,0 2,0 3,1c0,0 1,1 2,1c0,0 1,0 1,0c0,0 0,0 1,0c0,0 0,0 1,0c0,0 0,0 1,0c0,0 0,0 1,0l0,0l0,1" id="svg_24" opacity="undefined" fill-opacity="null" stroke-opacity="null" stroke-dasharray="null" stroke-width="null" stroke="#000" fill="none"/>
  <path d="m97.5,168.5c0,0 0,0 0,2c0,2 0,4 0,4c0,1 0,1 0,1c0,0 0,0 1,0c0,0 0,1 0,1l0,0" id="svg_25" opacity="undefined" fill-opacity="null" stroke-opacity="null" stroke-dasharray="null" stroke-width="null" stroke="#000" fill="none"/>
  <path d="m147.5,178.5c0,0 0,0 0,-1c0,0 0,0 0,0c0,-2 0,-2 0,-3c0,0 0,0 1,0c0,0 0,-1 0,-1c0,0 0.29289,0.70711 1,0c0.70711,-0.70711 0,-1 0,-1c0,0 0,0 1,0c0,0 0,0 1,0c0,0 0,0 0,0c1,0 1,0 1,0c0,0 0,0 0,0c0,1 1,1 1,1c0,0 0,0 0,0l0,1l0,0l0,0" id="svg_27" opacity="undefined" fill-opacity="null" stroke-opacity="null" stroke-dasharray="null" stroke-width="null" stroke="#000" fill="none"/>
  <path d="m41.5,169.5c0,0 0,0 0,-1c0,0 0,0 1,0c0,0 0,0 1,0c0,0 0,0 1,0c0,0 0,0 1,0c0,0 0.29289,-0.70711 1,0c0.70711,0.70711 0,1 0,1c0,0 1,0 1,1c0,0 0,0 0,0c0,1 1,1 1,1c0,0 0,0 0,1c0,0 0,0 0,0c0,1 0,1 0,1c0,1 0,1 0,2l0,0l0,0" id="svg_28" opacity="undefined" fill-opacity="null" stroke-opacity="null" stroke-dasharray="null" stroke-width="null" stroke="#000" fill="none"/>
 </g>
</svg>