<svg width="100" height="100" xmlns="http://www.w3.org/2000/svg">
 <!-- Created with Method Draw - http://github.com/duopixel/Method-Draw/ -->
 <g id="Layer_1">
  <title>Layer 1</title>
  <path d="m14.87179,63.58974c0,0 0,-0.51282 0,-1.53846c0,-1.02564 0.51282,-2.05128 1.02564,-3.07692c0.51282,-1.02564 0.86797,-1.63385 1.53846,-2.5641c0.84811,-1.17669 1.64452,-1.95521 2.5641,-3.07692c1.17225,-1.42991 1.75326,-2.7789 2.5641,-3.58974c0.81084,-0.81084 1.38125,-1.26093 2.05128,-1.53846c0.94757,-0.39249 1.53846,0 2.5641,0c0.51282,0 1.55833,-0.26639 3.07692,-0.51282c1.60074,-0.25976 3.02963,-0.76729 5.12821,-1.02564c1.52693,-0.18797 3.09017,-0.16429 4.10256,0c1.60074,0.25977 3.17231,0.86797 4.10257,1.53846c0.58834,0.42405 0.93525,1.27501 2.05128,1.53846c0.4991,0.11782 1.12103,0.35515 2.05128,1.02564c0.58834,0.42405 1.02564,1.02564 1.53846,1.53846c0,0 0,0.51282 0.51282,0.51282c0,0 0,0 0.51282,-0.51282c0,0 -0.23528,-0.35561 -0.51282,-1.02564c-0.19625,-0.47379 -0.60159,-0.95012 -1.02564,-1.53846c-0.67049,-0.93025 -0.7481,-1.38125 -1.02564,-2.05128c-0.19625,-0.47378 0,-1.53846 0,-3.07692c0,-1.53846 0,-4.61538 0,-6.15384c0,-0.51282 0,-1.02564 0,-1.02564c0,0 0,0 0,-0.51282c0,0 0,-0.51282 0,-1.02564c0,-1.02564 0.23528,-1.38125 0.51282,-2.05128c0.39249,-0.94757 0.26219,-2.57947 0.51282,-4.61538c0.25835,-2.09857 1.02564,-3.07692 1.02564,-3.58974c0,-0.51282 0.51282,-1.02564 0.51282,-1.02564c0,-1.02564 0,-1.53846 0,-2.5641c0,-0.51282 0,-1.02564 -0.51282,-1.53846c0,0 0,0 -0.51282,0c0,0 0,0 0,0c-0.51282,0 -0.51282,0 -1.02564,0c-1.02564,0 -1.53846,-0.51282 -1.53846,-0.51282c-0.51282,0 -0.51282,0 -0.51282,0c0,0 -0.7481,-0.15721 -1.02564,0.51282c-0.19625,0.47378 -0.51282,1.02564 -0.51282,1.02564c-0.51282,0.51282 -1.02564,0.51282 -1.53846,0.51282c0,0 -0.55186,0.19625 -1.02564,0c-0.67003,-0.27754 -0.82939,-1.06468 -1.02564,-1.53846c-0.27754,-0.67003 -0.51282,-0.51282 -0.51282,-1.53846c0,-0.51282 0,-2.05128 0,-2.05128c0,-0.51282 0,-0.51282 0,-0.51282c0,-0.51282 0,-0.51282 0,-0.51282c0,-0.51282 0.08877,-0.95012 0.51282,-1.53846c0.67049,-0.93025 1.20317,-1.90024 2.05128,-3.07692c0.67049,-0.93025 1.53846,-1.53846 1.53846,-1.53846c0.51282,-0.51282 1.02564,-0.51282 1.02564,-0.51282c0.51282,0 0.51282,-0.51282 1.02564,-0.51282c0.51282,0 0.51282,-0.51282 1.02564,-0.51282c0.51282,0 1.61654,0.39249 2.5641,0c0.67003,-0.27754 1.02564,-0.51282 1.53846,-0.51282c0.51282,0 1.02564,0 1.53846,0c0.51282,0 1.11441,0.4373 1.53846,1.02564c0.67049,0.93025 1.02564,1.53846 1.53846,2.05128c0,0 0.51282,0.51282 0.51282,0.51282c0,0.51282 0,1.02564 0,1.02564c0.51282,1.02564 0.76588,2.50182 1.02564,4.10256c0.24643,1.5186 0,3.07692 0.51282,4.61539c0,0 0.51282,0.51282 0.51282,0.51282c0.51282,0.51282 1.02565,1.02564 2.05128,2.05128c0.51282,0.51282 0.51282,0.51282 1.02564,1.02564c0,0 1.10093,0.95551 2.05128,2.05128c1.68001,1.93706 2.14005,3.51422 2.5641,4.10256c0.67049,0.93025 0.86798,1.63385 1.53847,2.5641c0.84811,1.17669 1.716,1.90024 2.5641,3.07692c0.67049,0.93025 1.02563,1.53846 1.53846,2.05128c0,0 0.51282,0.51281 1.02564,1.02564c0.51282,0.51282 1.38079,1.63385 2.05128,2.5641c0.42406,0.58834 0.90782,1.55218 1.02564,2.05128c0.26346,1.11602 0.51283,2.05128 0.51283,2.5641c0,1.02564 0,2.05128 0,3.07692c0,0.51282 0,1.02564 0,2.05128c0,0.51282 0.15766,1.12103 -0.51283,2.05128c-0.42405,0.58834 -0.92154,1.15718 -1.53846,1.53846c-1.37948,0.85257 -3.07693,0.51282 -5.1282,0.51282c-0.51283,0 -1.17584,-0.36262 -1.53846,0c-0.36262,0.36262 0,0.51282 0,0.51282c0,0.51282 0,1.02564 0,1.53846c0,1.02564 0,2.5641 0,3.58974c0,1.02564 -0.35516,2.14668 -1.02564,3.07693c-0.42406,0.58834 -1.12103,1.38079 -2.05128,2.05128c-0.58834,0.42406 -0.86843,1.26093 -1.53846,1.53847c-0.47379,0.19625 -1.46294,0.60159 -2.05128,1.02563c-0.93025,0.67049 -2.05128,0.51283 -3.58974,1.02564c-1.53846,0.51283 -3.10436,0.79 -4.10257,1.02564c-1.11602,0.26346 -2.53033,0.58681 -3.58974,1.02564c-1.49823,0.62059 -2.5641,0.51282 -3.58974,1.02564c-2.05128,1.02564 -3.49936,1.78782 -4.61539,2.05128c-1.49731,0.35346 -2.50182,0.76588 -4.10256,1.02564c-1.0124,0.16429 -2.59154,0.23564 -3.58974,0c-1.11603,-0.26346 -1.53846,-0.51282 -2.05128,-1.02564l0,0l0,-0.51282l0,0" id="svg_1" opacity="undefined" stroke="#000" fill="none"/>
  <path d="m30.76923,67.69231c0,-0.51282 0.51282,-0.51282 1.02564,-0.51282c0.51282,0 1.53846,0 2.05128,0c0.51282,0 0.51282,0 0.51282,0c0,0 0.51282,0 1.02564,0c0.51282,0 1.02564,-0.51283 1.53846,-1.02564c0.51282,-0.51282 1.53846,-1.02564 2.05128,-1.53846c1.02564,-1.02564 1.53846,-2.05129 2.5641,-3.07693c0.51282,-0.51282 1.02564,-1.02564 1.53846,-1.53846c0.51282,-0.51282 0.51282,-1.02564 1.02564,-1.53846c0,0 0.31657,-0.55186 0.51282,-1.02564c0.27754,-0.67003 1.02564,-1.02564 1.02564,-1.02564l0.51282,-0.51282l0,0l0,-0.51282" id="svg_2" opacity="undefined" stroke="#000" fill="none"/>
  <path d="m56.92308,32.82051c0,0.51282 0,1.02564 0,1.53846c0,1.02564 0.51282,2.5641 0.51282,3.07692c0,0.51282 0,0.51282 0,0.51282c0,0 0,0.51282 0,0.51282c-0.51282,0.51282 -0.51282,0.51282 -0.51282,1.02564c0,0 0,0 0,0c0,0.51282 0,1.02564 0,1.53846c0,0.51282 0,1.53846 0,2.05128l0,0.51282l0,0" id="svg_3" opacity="undefined" stroke="#000" fill="none"/>
 </g>
</svg>