<svg width="100" height="100" xmlns="http://www.w3.org/2000/svg">
 <!-- Created with Method Draw - http://github.com/duopixel/Method-Draw/ -->
 <g id="Layer_1">
  <title>Layer 1</title>
  <path d="m21.02564,57.94872c0.51282,0 1.02564,0 1.53846,-0.51282c0,0 0.1502,-0.1502 0.51282,-0.51282c0.36262,-0.36262 0.51282,0 0.51282,0c0.51282,0 0.51282,0 0.51282,0c0,0 0.51282,0 0.51282,0c0,0 0.51282,0 0.51282,0c0.51282,0 1.02564,0 1.53846,0c0.51282,0 1.02564,0 1.53846,0c0.51282,0 1.02564,0 1.53846,0c0.51282,0 1.02564,0 2.05128,0c0.51282,0 1.53846,0 1.53846,0c0.51282,0.51282 0.51282,0.51282 0.51282,0.51282c0.51282,0 1.02564,0 1.53846,0c0.51282,0 1.02564,0.51282 1.02564,0.51282c0,0 0.51282,0 1.02564,-0.51282c0.51282,-0.51282 0.51282,-0.51282 1.02564,-1.02564c0.51282,-0.51282 0.51282,-1.02564 1.02564,-1.02564c0,0 0,-0.51282 0.51282,-0.51282c0,0 0,0 0,0c0.51282,0 0.51282,0 0.51282,0c0.51282,-0.51282 0.86843,-0.7481 1.53846,-1.02564c0.47379,-0.19625 1.5775,-0.31657 2.05128,-0.51282c0.67003,-0.27754 1.38125,-1.26093 2.05128,-1.53846c0.47379,-0.19625 0.51282,0 1.02564,0c0,0 0.03904,0.19625 0.51282,0c0.67003,-0.27753 0.51282,-0.51282 1.02564,-0.51282c1.02564,0 1.53846,0 2.05128,0c1.02564,0 1.53846,0 2.05128,0c0.51282,0 1.02564,0 1.02564,0c0.51282,0 1.03936,-0.11782 1.53846,0c1.11603,0.26345 1.53846,0.51282 1.53846,0.51282c0.51282,0 1.02564,0.51282 1.02564,0.51282c0,0 0.51282,0 0.51282,0c0,0 0.51282,0.51282 0.51282,0.51282c0.51282,0.51282 0.51282,0.51282 0.51282,0.51282c0.51282,0.51282 0.51282,0.51282 0.51282,0.51282c0,0 0.52654,0.395 1.02564,0.51282c1.11603,0.26345 2.09032,0.82939 2.5641,1.02564c0.67003,0.27754 1.02564,0.51282 1.02564,0.51282c0,0 -0.24936,-0.42244 -0.51282,-1.53846c-0.35347,-1.49731 0,-2.05128 0,-2.56411c0,0 0,-0.51282 -0.51282,-0.51282c0,0 0,0 0,0c0,-0.51282 -0.23528,-0.86843 -0.51282,-1.53846c-0.19625,-0.47379 -0.51282,-1.02564 -0.51282,-1.53846c0,0 -0.51282,-0.51282 -0.51282,-0.51282c0,0 0,0 0,-0.51282c0,0 -0.23528,0.15721 -0.51282,-0.51282c-0.19625,-0.47379 -0.76588,-0.96336 -1.02564,-2.5641c-0.16429,-1.0124 -0.24936,-2.47372 -0.51282,-3.58974c-0.47128,-1.99641 0,-3.07692 0,-3.58974c0,-0.51282 0,-0.51282 0,-1.02564c0,-0.51282 0,-1.02564 0,-1.53846c0,0 0,-0.51282 0,-0.51282c0,-0.51282 0,-1.53846 0,-1.53846c0,0 0,-0.51282 -0.51282,-0.51282c0,0 -0.1502,0.36262 -0.51282,0c-0.36262,-0.36262 -0.51282,-1.02564 -0.51282,-1.02564c0,0 0,0 -0.51282,0c0,0 -0.03904,-0.19625 -0.51282,0c-0.67003,0.27754 -0.42244,0.76218 -1.53846,1.02564c-0.4991,0.11782 -1.17584,-0.36262 -1.53846,0c-0.36262,0.36262 -0.51282,0.51282 -0.51282,0.51282c0,0 -0.51282,0.51282 -0.51282,0.51282c0,0 0,0 -0.51282,0c-0.51282,0 -1.03936,0.11782 -1.53846,0c-1.11603,-0.26346 -1.17585,-0.1502 -1.53846,-0.51282c-0.36262,-0.36262 -0.51282,-0.51282 -0.51282,-0.51282c0,-0.51282 0,-0.51282 0,-1.53846c0,-0.51282 0,-2.05128 0,-3.07692c0,-1.53846 0.76218,-2.98654 1.02564,-4.10256c0.11782,-0.4991 0.51282,-1.02564 0.51282,-1.02564c0,0 0.1502,-0.1502 0.51282,-0.51282c0.36262,-0.36262 1.38125,-0.74811 2.05128,-1.02564c0.47379,-0.19625 1.53846,0 1.53846,0c0.51282,-0.51282 1.02564,-0.51282 1.53846,-0.51282c0.51282,0 1.02564,-0.51282 1.53846,-0.51282c0.51282,0 1.02564,0 1.02564,0c0.51282,0 0.51282,0 1.02564,0c0,0 0,0 0.51282,0c0.51282,0 2.12936,-0.39249 3.07692,0c0.67003,0.27754 0.66302,0.66302 1.02564,1.02564c0.36262,0.36262 0.51282,0.51282 0.51282,0.51282c0,0.51282 0.27718,1.05308 0.51282,2.05128c0.26346,1.11602 0.90782,1.55218 1.02564,2.05128c0.26346,1.11603 0.51282,1.53846 0.51282,2.05128c0,1.02564 0.31657,1.5775 0.51282,2.05128c0.27754,0.67003 0.51282,1.02564 0.51282,1.02564c0,0.51282 0.23528,0.86843 0.51282,1.53846c0.19624,0.47378 0.66302,1.17584 1.02564,1.53846c0.72523,0.72524 0,1.02564 0.51283,1.53846c0,0 0.395,1.03936 0.51282,1.53846c0.26346,1.11602 0.91787,2.09151 1.53846,3.58974c0.43883,1.05941 1.27869,2.50182 1.53846,4.10256c0.24644,1.5186 0.29205,3.65795 1.02564,5.64103c0.39784,1.07548 0.74811,1.89407 1.02564,2.5641c0.39249,0.94757 0.23528,1.89407 0.51282,2.5641c0.19625,0.47379 0.31657,1.5775 0.51283,2.05128c0.27753,0.67003 0.90782,1.03936 1.02564,1.53846c0.26346,1.11603 0.66302,1.68866 1.02563,2.05128c0.36263,0.36262 0.15021,0.66302 0.51283,1.02564c0.36262,0.36262 0.51282,0.51282 0.51282,0.51282c0,0 0,0.51282 0,0.51282c0,0.51282 0,0.51282 0,0.51282c0,0 0,0.51282 0,0.51282c0,0.51282 -0.1502,0.1502 -0.51282,0.51282c-0.36262,0.36262 -0.35561,1.26093 -1.02564,1.53846c-0.94757,0.3925 -1.06467,0.31657 -1.53846,0.51282c-0.67004,0.27754 -1.02564,0.51282 -1.02564,0.51282c0,0.51282 -0.51282,0.51282 -1.02564,1.02564c0,0 -0.51282,0 -0.51282,0c0,0 -0.55186,-0.19625 -1.02564,0c-0.67003,0.27754 -0.86843,0.7481 -1.53846,1.02564c-1.42135,0.58874 -2.09032,-0.19625 -2.5641,0c-0.67004,0.27754 -0.51283,0.51282 -0.51283,0.51282c-0.51282,0 -0.51282,0 -1.02564,0.51282c-0.51282,0.51282 -0.51282,0.51282 -0.51282,0.51282c-0.51282,0.51282 -1.53846,0.51282 -2.05128,1.02564c-0.51283,0.51283 -1.02564,0.51283 -1.53846,0.51283c0,0 -0.35561,0.23528 -1.02564,0.51282c-0.47379,0.19625 -1.02564,0 -1.53846,0c0,0 -1.02564,0 -1.53846,0c-0.51282,0 -1.10371,-0.39249 -2.05128,0c-0.67004,0.27754 -1.02564,0.51283 -1.53846,0.51283c-0.51282,0 -1.53846,0 -2.05128,0c-0.51282,0 -1.02564,0 -1.53846,0c-1.02564,0 -1.53846,0 -2.05128,0c-0.51282,0 -1.02564,0 -1.53846,0c-1.02564,0 -1.53846,0 -2.05128,0c0,0 -0.51282,0 -1.02564,0c-0.51282,0 -0.51282,0.51282 -1.02564,0.51282c0,0 -0.51282,0 -0.51282,0c-0.51282,0.51282 -1.02564,0.51282 -1.02564,0.51282c-0.51282,0 -1.10223,0.26961 -1.53846,0c-3.90177,-2.41142 -2.60314,-4.29881 -3.07692,-4.10256c-0.67003,0.27754 -0.95012,1.11441 -1.53846,1.53846c-0.93026,0.67049 -1.46294,1.11441 -2.05128,1.53847c-0.93025,0.67049 -1.53846,0.51282 -2.05128,1.02563c-0.51282,0.51283 -1.02564,0.51283 -1.53846,1.02564c0,0 0,0.51283 -0.51282,0.51283c0,0 -0.1502,0.66302 -0.51282,1.02563c-0.36262,0.36262 -0.51282,0 -0.51282,0c0,0.51283 0,0.51283 -0.51282,0.51283l0,0l0,0" id="svg_4" opacity="undefined" stroke="#000" fill="none"/>
  <path d="m49.23077,29.23077c0,0 0.51282,0 0.51282,0c0,0 0.51282,-0.51282 0.51282,-0.51282c0.51282,0 0.51282,0 1.02564,0c0,0 0,-0.51282 0.51282,-0.51282c0,0 0,0 0,-0.51282c0,0 -0.51282,0 -0.51282,0c0,0.51282 -0.51282,0.51282 -0.51282,0.51282c0,0 0,0 -0.51282,0c0,0 0,0 0,0c-0.51282,0 -0.51282,0 -0.51282,0c0,0 0,-0.51282 0,-0.51282c0,0 -0.51282,-0.51282 -0.51282,-0.51282c0,0 0,-0.51282 0,-0.51282c0,0 0,-0.51282 0,-0.51282c0,0 0,-0.51282 0,-0.51282c0,0 0,0 0,-0.51282c0,0 0.51282,-0.51282 0.51282,-1.02564c0,0 0,0 0.51282,0c0,0 0,0 0.51282,0c0,0 0.51282,-0.51282 0.51282,-0.51282c0.51282,0 0.51282,0 0.51282,0l0,0" id="svg_7" opacity="undefined" fill-opacity="null" stroke-opacity="null" stroke-dasharray="null" stroke-width="null" stroke="#000" fill="none"/>
 </g>
</svg>