<svg width="200.00000000000003" height="150" xmlns="http://www.w3.org/2000/svg">
 <!-- Created with Method Draw - http://github.com/duopixel/Method-Draw/ -->
 <g id="Layer_1">
  <title>Layer 1</title>
  <path d="m97.09679,79.83868c0,0 0,0 0,0.64516c0,1.29031 0.14822,1.95273 0,2.58063c-0.33144,1.40402 -0.95887,2.46692 -1.29031,3.87094c-0.14822,0.6279 -0.296,1.09253 -0.64516,1.93547c-0.24689,0.59605 0,0.64516 0,1.29031c0,0 -0.64516,0.64516 -0.64516,0.64516c0,0.64516 0.24689,1.33942 0,1.93547c-0.34916,0.84294 -0.64516,1.29031 -0.64516,1.93547c0,0.64516 0,1.29031 0,1.93547c0,0 -0.39828,0.69427 -0.64516,1.29031c-0.34916,0.84294 -0.18896,0.83412 -0.64516,1.29031c-0.45619,0.45619 -0.64516,0 -1.29031,0.64516c0,0 -0.44737,0.296 -1.29031,0.64516c-0.59605,0.24689 -0.74338,0.15137 -1.93547,0.64516c-0.84294,0.34916 -1.33942,0.39827 -1.93547,0.64516c-0.84294,0.34916 -1.93547,0.64516 -2.58063,0.64516c-0.64516,0 -1.33942,-0.24689 -1.93547,0c-0.84294,0.34916 -1.29031,0.64516 -1.93547,0.64516c-0.64516,0 -1.09254,0.296 -1.93548,0.64516c-0.59605,0.24689 -1.93547,0 -2.58063,0c-0.64516,0 -1.93547,0 -2.58063,0c-0.64516,0 -1.29031,0 -1.93547,0c-0.64516,0 -0.83412,-0.83412 -1.29031,-1.29031c-0.45619,-0.45619 -0.94115,-1.09253 -1.29031,-1.93547c-0.24689,-0.59605 -0.64516,-1.29031 -0.64516,-1.93547c0,-0.64516 -0.64516,-1.29031 -0.64516,-1.93547c0,-0.64516 0.19835,-1.41032 -0.64516,-2.58063c-0.53349,-0.74017 -0.18896,-1.47928 -0.64516,-1.93547c-0.45619,-0.45619 -0.64516,-0.64516 -0.64516,-1.29031c0,0 -0.64516,-0.64516 -0.64516,-0.64516c0,0 0,-0.64516 0,-0.64516c0,0 0,0 0,-0.64516c0,0 -0.64515,0 -0.64515,0l0,0l0,0" id="svg_5" opacity="undefined" stroke="#000" fill="none"/>
  <path d="m121.61277,93.38698c0,0 -0.64516,0 -1.29031,0c-0.64516,0 -0.64516,0.64516 -1.93548,0.64516c-0.64516,0 -0.69427,0.39827 -1.29031,0.64516c-0.84294,0.34916 -0.83412,0.83412 -1.29031,1.29031c-0.45619,0.45619 -0.76516,0.4468 -1.93547,1.29031c-0.74017,0.53349 -1.29031,1.29031 -1.93547,1.93547c-0.64516,0.64516 -1.33942,1.04343 -1.93547,1.29031c-0.84294,0.34916 -1.09253,0.94115 -1.93547,1.29031c-0.59605,0.24689 -1.93548,0.64516 -3.22579,0.64516c-0.64516,0 -1.93547,0 -3.22578,0c-0.64516,0 -0.64516,0 -1.29031,0c-0.64516,0 -0.64516,0 -1.29031,0c0,0 -0.64516,0 -0.64516,0c0,0 -0.64516,0 -0.64516,0c0,0 -0.64516,0 -1.29031,0c0,0 -0.44737,-0.296 -1.29031,-0.64516c-0.59605,-0.24689 -0.64516,0 -1.29031,-0.64516c0,0 0,0 -0.64516,-0.64516c0,0 0,0 0,0c-0.64516,0 -0.64516,-0.64516 -0.64516,-0.64516l0,0l0,0" id="svg_6" opacity="undefined" stroke="#000" fill="none"/>
  <path d="m84.19365,110.80622c0,0 0,0 0,0.64516c0,0 0,0 0,0c0,0.64516 0,1.29031 0,1.93547c0,0.64516 0,1.93547 0,3.22578c0,0.64516 0,0.64516 0,1.29032c0,0 0,0 0.64516,0c0,0 0,0.64516 0,0.64516c0,0 -0.64516,0 -0.64516,0c-1.29031,0 -1.93547,0 -2.58063,0c0,0 0.45619,0.83412 0,1.29031c-0.45619,0.45619 -0.64516,0.64516 -0.64516,1.29031c0,0.64516 -0.64516,1.29031 -0.64516,1.29031c0,0.64516 0,1.29031 0,1.93547c0,0.64516 0,1.29031 0,1.29031c0,0 0,0.64516 0,0.64516c0,0.64516 0,0.64516 0,1.29031c0,0 -0.24689,0.04911 0,0.64516c0.34916,0.84294 0.18896,0.83412 0.64516,1.29031c0.45619,0.45619 0.64516,0 0.64516,0.64516c0,0 0,0 0.64516,0.64516c0,0 0.18896,-0.45619 0.64516,0c0.45619,0.45619 -0.64516,0.64516 -0.64516,0.64516c-1.29031,0.64516 -2.23147,0.44737 -2.58063,1.29031c-0.24689,0.59605 -0.64516,0.64516 -0.64516,0.64516c0,0.64516 -0.18896,0.18896 -0.64516,0.64516c-0.45619,0.45619 0,0.64516 0,1.29031l0,0l0,0l0,0" id="svg_7" opacity="undefined" stroke="#000" fill="none"/>
  <path d="m31.93591,72.74194c0.64516,0 0.83412,-0.45619 1.29031,0c0.4562,0.45619 0,0.64516 0.64516,0.64516c0.64516,0 1.29031,0 1.93547,0c1.29032,0 2.58063,0 3.22579,0c1.29031,0 1.93547,0 2.58063,0c0,0 0.64516,0 0.64516,0c0.64516,0 0.64516,0 1.29032,0c0.64516,0 1.33942,0.24689 1.93547,0c0.84294,-0.34916 0.64516,-0.64516 1.29031,-1.29031l0,0l0,0" id="svg_8" opacity="undefined" stroke="#000" fill="none"/>
  <path d="m151.93515,80.48383c0,0 0.0491,-0.24689 0.64516,0c0.84294,0.34916 1.29033,0.64516 1.93549,0.64516c0.64516,0 1.93547,0.64516 2.58063,0.64516c1.29031,0 1.93547,0 3.22578,0c0.64516,0 1.29031,0 2.58063,0c0,0 1.29031,0 1.93547,0c1.29031,0 3.27756,-0.20048 5.16125,-0.64516c1.40402,-0.33144 1.93547,-0.64516 2.58063,-0.64516l0,0l0,0l0,0" id="svg_9" opacity="undefined" stroke="#000" fill="none"/>
  <path d="m128.7095,92.09666c0,0 0,-0.64516 0,-1.29031c0,-0.64516 0.56622,-1.97806 1.29031,-3.22579c1.16756,-2.01191 1.93547,-2.58063 2.58063,-3.22578c0.64516,-0.64516 0.64516,-0.64516 0.64516,-0.64516c0.64516,-0.64516 0.64516,-0.64516 0.64516,-0.64516c0.64516,0 0.64516,-0.64516 1.29031,-1.29031c0.64516,-0.64516 0.64516,-0.64516 1.29031,-1.29031c0,0 0.64516,-0.64516 1.29031,-1.29031c0.64516,-0.64516 1.93547,-1.93547 3.22578,-3.22579c1.29031,-1.29031 1.93547,-1.93547 1.93547,-1.93547l0,0" id="svg_10" opacity="undefined" stroke="#000" fill="none"/>
  <path d="m184.83818,74.67741c0,0 0.64516,0 0.64516,0c0,0 0.64516,0 0.64516,0c0,0 0,0 0.64516,0l0,0l0,0l0,0" id="svg_11" opacity="undefined" stroke="#000" fill="none"/>
  <path d="m18.38761,63.06459c0,0 0.64516,0 0.64516,0c0.64516,0 1.32483,0.29646 2.58063,0c1.40402,-0.33144 3.22579,-0.64516 3.87094,-1.29031l0.64516,0l0,0l0.64516,0" id="svg_12" opacity="undefined" stroke="#000" fill="none"/>
  <path d="m119.67729,108.22559c0,0.64516 0,1.29031 0,2.58063c0,1.29031 -0.12,1.73711 -1.29031,2.58063c-0.74017,0.53349 -1.73769,0.94115 -2.58063,1.29031c-0.59605,0.24689 -1.29031,0.64516 -1.29031,0.64516c0,0 -0.09501,0.75683 0.64516,1.29031c1.17031,0.84351 2.58063,0.64516 3.87094,0.64516c1.29032,0 2.58064,0 3.22579,0c0.64516,0 1.29031,0 1.29031,0c0,0 0,0 0,0c0,0.64516 0,0.64516 -0.64516,1.29032c-0.64516,0.64516 -1.8222,0.70831 -2.58063,1.93547c-0.67836,1.0976 -0.8629,2.13548 -1.93548,3.87094c-0.47968,0.77612 -0.64516,1.29031 -1.29031,1.93547c0,0 0,0.64516 -0.64516,0.64516c0,0 -0.18896,0.18896 -0.64516,0.64516c-0.45619,0.45619 -0.64516,0 -0.64516,0c0.64516,0.64516 1.29031,0.64516 1.29031,0.64516c0.64516,0 0.64516,0.64516 0.64516,0.64516c0,0 0,0 -0.64516,0.64516l0,0l0,0.64516l0,0" id="svg_13" opacity="undefined" stroke="#000" fill="none"/>
  <path d="m129.99982,95.96761c0,0 0.15765,1.94514 0,3.22578c-0.32501,2.64012 -1.29031,5.16126 -1.29031,7.09673l0,0.64516l-0.64516,0l0,0" id="svg_14" opacity="undefined" stroke="#000" fill="none"/>
  <path d="m75.8066,116.61263c0,0 0.64516,0 1.29031,0c0.64516,0 0.64516,0 1.29031,0c0,0 0,0 0.64516,0c0,0 0,0 0.64516,0c1.29031,0 2.62974,0.24689 3.22578,0c0.84294,-0.34916 1.30757,-1.14209 1.93547,-1.29031c1.40402,-0.33144 1.95273,-0.49693 2.58063,-0.64516c1.40402,-0.33144 1.93547,-0.64516 2.58063,-0.64516c0.64516,0 0.64516,0 0.64516,0c0,0 0.64516,0 0.64516,0l0,-0.64516l0,-0.64516l0,-0.64516" id="svg_15" opacity="undefined" stroke="#000" fill="none"/>
  <path d="m73.22598,128.87062c0.64516,0 0.64516,0 1.93547,0c0,0 0.64516,0 1.29031,0c0,0 0.64516,0 0.64516,0c0.64516,0 1.29031,0 1.29031,0c0,0 0.64516,0 0.64516,0c0,0 0.64516,0 0.64516,0c0.64516,0 1.29031,0 3.22578,0c0.64516,0 2.58063,0 4.5161,0c1.93547,0 2.58063,0 3.22578,0l0.64516,0l0,-0.64516" id="svg_16" opacity="undefined" stroke="#000" fill="none"/>
  <path d="m47.41969,25.64547c0,0 0,0 0,0c0.64516,0 0.64516,0 0.64516,0c0,0 0.64516,0 0.64516,0c0.64516,0 0.64516,0.64516 1.29032,1.29031c0,0 0.64516,0.64516 1.29031,0.64516c0,0 0,0.64516 0.64516,0.64516c0,0 0.18896,0.18896 0.64516,0.64516c0.4562,0.45619 0.64516,0.64516 0.64516,1.29031c0,0 0.18896,0.18896 0.64516,0.64516c0.4562,0.45619 0.18896,0.83412 0.64516,1.29031c0.4562,0.4562 0,0.64516 0,0.64516l0,0.64516" id="svg_17" opacity="undefined" stroke="#000" fill="none"/>
  <path d="m54.51641,23.71c0,0.64516 0,0.64516 0,1.29032c0,0.64516 -0.24689,1.98458 0,2.58063c0.34916,0.84294 1.04342,1.33943 1.29031,1.93547c0.34916,0.84294 0.64516,0.64516 0.64516,1.29031l0,0l0,0" id="svg_20" opacity="undefined" stroke="#000" fill="none"/>
  <path d="m85.48396,69.51616c0,0 0,0 0,0c0.64516,0 0.64516,0 1.29031,0c0.64516,0 0.64516,0 1.29031,0c0.64516,0 1.29031,0 1.29031,0c0,0 0,0 0,0c0.64516,0 1.29031,-0.64516 1.93547,-0.64516c0.64516,0 0.83412,-0.18896 1.29031,-0.64516c0.45619,-0.45619 1.30758,0.14822 1.93548,0c1.40402,-0.33144 1.98608,-0.50957 3.87094,-1.29031c1.3328,-0.55206 2.58063,-1.29031 3.22578,-1.29031c0,0 0.64516,0 0.64516,0l0,-0.64516" id="svg_21" opacity="undefined" stroke="#000" fill="none"/>
  <path d="m31.61333,59.8388c0,0 0.39827,-0.04911 0.64516,-0.64516c0.34916,-0.84294 2.04714,-1.1953 2.58063,-1.93547c0.84351,-1.17031 1.09254,-2.23147 1.93547,-2.58063c0.59605,-0.24689 0.64516,0 1.29031,0c0,0 0,-0.64516 0,-0.64516c0.64516,0 0.64516,0 0.64516,0c0.64516,0 0.64516,-0.64516 0.64516,-0.64516c0,0 0.18896,-0.18896 0.64516,-0.64516c0.4562,-0.4562 1.33942,-0.39827 1.93547,-0.64516c0.84294,-0.34916 2.0337,-0.79653 3.22579,-1.29031c0.84294,-0.34916 1.29031,-0.64516 1.93547,-0.64516c0,0 0,0 0.64516,0c0.64516,0 0.83412,0.18896 1.29031,0.64516c0.4562,0.4562 0.64516,0.64516 0.64516,0.64516c0,0 0.64516,0 0.64516,0.64516c0,0 0,0.64516 0,0.64516c0,0 0.64516,0 0.64516,0c0,0.64516 0.18896,0.83412 0.64516,1.29032c0.4562,0.4562 0,0.64516 0,1.29031c0,0 0,0 0,0.64516c0,0 0,0 0,0.64516c0,0 0,0 0,0.64516c0,0 0,0 0,0.64516c0,0 0,0 0,0.64516c0,0 0,0.64516 0,0.64516c0,0.64516 0,0.64516 0,0.64516c0,0.64516 0,0.64516 0,1.29032c0,0 0,0 0,0.64516c0,0 0,0 0,0.64516c0,0 0,0 0,0.64516c0,0 0,0 0,0.64516c0,0 0,0 0,0c0,0.64516 0,0.64516 0,0.64516c0,0.64516 0,0.64516 0,0.64516c0,0 0,0.64516 0,0.64516c0,0 0,0.64516 0,1.29031c0,0 0,0 0,0c0,0.64516 0,0.64516 0,0.64516c0,0 0,-0.64516 0,-0.64516c0,-0.64516 0.39827,-1.33942 0.64516,-1.93547c0.34916,-0.84294 0.64516,-1.29032 1.29031,-1.93547c0.64516,-0.64516 1.1953,-2.04714 1.93547,-2.58063c1.17031,-0.84351 1.47928,-0.83412 1.93547,-1.29032c0.4562,-0.4562 0.64516,0 0.64516,0c0,0 1.30757,-0.14823 1.93547,0c1.40402,0.33144 1.93547,0.64516 2.58063,0.64516c1.29032,0 1.93547,0.64516 2.58063,0.64516c0.64516,0 1.47929,0.18896 1.93548,0.64516c0.45619,0.4562 1.29031,0 1.29031,0c0.64516,0 0.64516,0 1.29031,0.64516c0,0 -0.19778,0.296 0.64516,0.64516c0.59605,0.24689 0.64516,0 1.29031,0.64516c0.64516,0.64516 1.47927,0.83412 1.93547,1.29032c0.45619,0.45619 0.64516,0.64516 1.29031,1.29031c0,0 0.64516,0.64516 0.64516,0.64516c0,0 0,0.64516 0,0.64516c0,0 0,0 0,0l0,0.64516" id="svg_22" opacity="undefined" fill-opacity="null" stroke-opacity="null" stroke-dasharray="null" stroke-width="null" stroke="#000" fill="none"/>
  <path d="m25.16176,56.61301c0.64516,0 0.64516,0 1.29031,0c0,0 0,0 0.64516,0c0,0 0,0 0,0c0.64516,0 0.64516,0 0.64516,0c0,-0.64516 0,-0.64516 0.64516,-0.64516c0,0 0.30598,-0.09636 0.64516,-0.64516c0.75843,-1.22716 2.58063,-1.93547 3.87094,-2.58063c2.58063,-1.29032 3.67316,-2.23147 4.5161,-2.58063c0.59605,-0.24689 1.29031,-0.64516 1.29031,-0.64516c0,0 0,0 0,0c0.64516,0 0.64516,-0.64516 0.64516,-0.64516c0,0 0.64516,-0.64516 0.64516,-1.29031c0,-0.64516 0.64516,-1.29032 0.64516,-1.29032c0.64516,-0.64516 0.64516,-1.29031 1.29031,-1.93547c0.64516,-0.64516 1.09196,-1.41032 1.93547,-2.58063c0.53349,-0.74017 1.04342,-1.33942 1.29031,-1.93547c0.34916,-0.84294 0.64516,-0.64516 1.29031,-1.29032c0,0 0,0 0,0c0.64516,0 0.64516,0 0.64516,0c0.64516,0 0.64516,0 0.64516,0c0,0.64516 -0.4562,0.83412 0,1.29032c0.4562,0.4562 0.64516,0.64516 0.64516,0.64516c0,0.64516 0.94116,0.44737 1.29032,1.29031c0.24689,0.59605 0.94116,0.44738 1.29031,1.29031c0.24689,0.59605 0.64516,0.64516 1.29031,1.29031c0,0 0.64516,0 0.64516,0c0,0 0.64516,0 0.64516,0c0.64516,0 0.64516,0 1.29031,0c0,0 0,0 0.64516,0c0,0 0,0 0.64516,0c0,0 0.64516,-0.64516 0.64516,-0.64516c0,0 0.69427,-0.39827 1.29031,-0.64516c0.84294,-0.34916 1.29031,-1.29031 1.29031,-1.29031c0.64516,-0.64516 1.29031,-1.29031 1.93547,-1.93547c0,0 0,0 0.64516,-0.64516c0,0 0,0 0,0c0,0 0,-0.64516 0,-0.64516c0,0 0,-0.64516 0,-1.29031c0,-0.64516 0,-0.64516 0,-0.64516c0,0 0,0 0,-0.64516c0,0 0.64516,0 0.64516,0c0.64516,-0.64516 0.64516,-1.29031 0.64516,-1.93547c0,0 0.18896,-0.18896 0.64516,-0.64516c0.4562,-0.4562 0,-0.64516 0,-0.64516c0,0 0,-0.64516 0,-1.29031c0,-0.64516 0,-0.64516 0,-0.64516c0,-0.64516 0,-0.64516 0,-0.64516c0,0 0,-0.64516 0,-0.64516c0,-0.64516 0,-1.29031 0,-1.93547c0,0 0.24689,-0.69427 0,-1.29031c-0.34916,-0.84294 -0.64516,-0.64515 -1.29032,-1.29031c-0.64516,-0.64516 -1.33942,-1.04342 -1.93547,-1.29032c-0.84294,-0.34916 -1.33942,-1.04342 -1.93547,-1.29031c-0.84294,-0.34916 -0.83412,-1.47928 -1.29031,-1.93547c-0.4562,-0.45619 -1.29032,-0.64516 -1.29032,-0.64516c-0.64516,-0.64516 -0.44738,-1.58632 -1.29031,-1.93547c-0.59605,-0.24689 -1.29031,-0.64516 -1.93547,-1.29031c0,0 -0.83412,-0.18896 -1.29031,-0.64516c-0.4562,-0.4562 0,-0.64516 0,-0.64516c-0.64516,0 -0.69427,-0.39827 -1.29031,-0.64516c-0.84294,-0.34916 -1.29032,-0.64516 -1.93547,-0.64516c0,0 0,0 -0.64516,0c-0.64516,0 -0.64516,0 -1.29031,0c-0.64516,0 -1.33942,0.39827 -1.93547,0.64516c-0.84294,0.34916 -1.73712,1.41032 -2.58063,2.58063c-1.06697,1.48034 -2.14429,2.27106 -3.22578,3.22579c-1.74386,1.53945 -1.35347,3.11252 -2.58063,3.87094c-0.54881,0.33918 -0.83412,0.18896 -1.29032,0.64516c-0.4562,0.45619 -0.94116,1.09253 -1.29031,1.93547c-0.24689,0.59605 -0.18896,0.83412 -0.64516,1.29032c-0.4562,0.45619 -0.83412,0.18896 -1.29031,0.64516c-0.45619,0.45619 -0.64516,0.64516 -0.64516,1.29031c0,0 0.17807,1.43401 -1.93547,3.87094c-1.1956,1.37854 -2.40256,3.36948 -4.5161,5.80642c-0.5978,0.68927 -1.40199,1.1953 -1.93547,1.93547c-0.84351,1.17031 -1.58632,1.09253 -1.93547,1.93547c-0.24689,0.59605 -0.39827,0.69427 -0.64516,1.29031c-0.34916,0.84294 -1.09196,1.41032 -1.93547,2.58063c-0.53348,0.74017 -1.38667,1.59629 -1.93547,1.93547c-1.22716,0.75843 -1.58632,1.09253 -1.93547,1.93547c-0.24689,0.59605 -0.44738,0.94116 -1.29031,1.29031c-0.59605,0.24689 -1.21196,0.96352 -3.22579,1.29032c-0.63683,0.10334 -0.83412,0.18896 -1.29031,0.64516c-0.4562,0.4562 -0.83412,-0.4562 -1.29031,0c-0.45619,0.4562 -0.83412,0.18896 -1.29031,0.64516c-0.45619,0.4562 -0.64516,0.64516 -0.64516,1.29031c0,0 -0.64516,0 -0.64516,0.64516c0,0 -0.18896,0.18896 -0.64516,0.64516c-0.45619,0.4562 0,1.29031 0,1.93547c0,0 -0.64516,0.64516 -0.64516,0.64516c0,0.64516 0,1.29031 0,2.58063c0,1.29032 0,2.58063 0,3.87094c0,0.64516 0,1.93547 0,2.58063c0,0.64516 0,1.29031 0,1.93547c0,0.64516 -0.45619,0.83412 0,1.29031c0.4562,0.45619 0.64516,0 1.29031,0.64516c0.64516,0.64516 1.33942,0.39827 1.93547,0.64516c0.84294,0.34916 1.32483,0.99386 2.58063,1.29031c1.40402,0.33144 1.35346,1.8222 2.58063,2.58064c0.5488,0.33918 0.83412,0.83412 1.29031,1.29031c0.4562,0.45619 0.83412,0.18896 1.29031,0.64516c0.45619,0.45619 0.30598,0.74151 0.64516,1.29031c0.75843,1.22717 1.93547,0.64516 2.58063,1.29031c0.64516,0.64516 1.09253,0.94115 1.93547,1.29031c0.59605,0.24689 1.29031,0.64516 1.29031,0.64516c1.29032,0.64516 1.93547,0.64516 2.58063,1.29031c0.64516,0.64516 1.93547,0.64516 1.93547,0.64516c0.64516,0 0.64516,0 0.64516,0c0.64516,0 0.64516,0 1.29031,0c0.64516,0 1.29032,0 1.29032,0c0.64516,0.64516 1.93547,1.29031 1.93547,1.29031c0.64516,0.64516 1.17661,0.95887 2.58063,1.29031c1.2558,0.29646 1.93547,0.64516 3.22579,0.64516c0,0 0.64516,0 0.64516,0c0.64516,0 0.64516,0 1.29031,0c0,0 1.29031,0.64516 1.93547,0.64516c0.64516,0 1.1766,0.31371 2.58063,0.64516c0.6279,0.14823 1.29032,0 1.93547,0c0.64516,0 0.64516,0 0.64516,0c0,0.64516 0.64516,0.64516 0.64516,0.64516c0.64516,0.64516 1.09253,0.94115 1.93547,1.29031c0.59605,0.24689 0.64516,0.64516 0.64516,0.64516c0,0 0,0 0,0c0.64516,0.64516 1.04343,0.69427 1.29032,1.29031c0.34916,0.84294 1.58632,1.73769 1.93547,2.58063c0.24689,0.59605 0.39827,1.33942 0.64516,1.93547c0.34916,0.84294 0.64516,1.29031 1.29031,1.93547c0.64516,0.64516 0.64516,0.64516 0.64516,1.29031c0,0.64516 0,2.58064 0.64516,3.87095c1.29031,2.58063 2.25383,3.79259 2.58063,5.80641c0.10334,0.63683 0.94116,1.73769 1.29031,2.58063c0.24689,0.59605 0.296,1.09253 0.64516,1.93547c0.24689,0.59605 0.296,1.09254 0.64516,1.93548c0.49378,1.19209 0,1.93547 0.64516,2.58063c0,0 0,0.64516 0,1.29031c0,0.64516 0.39827,1.33942 0.64516,1.93547c0.34916,0.84294 0.94116,1.09253 1.29031,1.93547c0.24689,0.59605 0.64516,1.29031 0.64516,1.29031c0.64516,0.64516 1.04342,0.69426 1.29031,1.29031c0.34916,0.84294 0.44737,0.94116 1.29031,1.29031c0.59605,0.24689 0.64516,0.64516 0.64516,0.64516l0,0l0.64516,0" id="svg_23" opacity="undefined" fill-opacity="null" stroke-opacity="null" stroke-dasharray="null" stroke-width="null" stroke="#000" fill="none"/>
  <path d="m126.45145,65.00006c0,0 0.64516,0 1.29031,0c0,0 0,0 0.64516,0c0,0 0.64516,0 1.29031,0c0,0 0.64516,0 1.29031,0c0.64516,0 1.29031,-0.64516 1.93547,-0.64516c0.64516,0 0.64516,0 1.93547,0c0,0 0.64516,0 0.64516,0c0.64516,0 0.18896,-0.18896 0.64516,-0.64516c0.45619,-0.45619 0.64516,0 1.29031,0c0.64516,0 1.93547,0 1.93547,0c0.64516,-0.64516 1.93547,-0.64516 2.58063,-0.64516c0.64516,0 0.64516,0 1.29031,0c0,0 0.64516,0 1.29031,0c0,0 0.64517,0 1.29033,0c0.64516,0 0.69426,-0.24689 1.29031,0c0.84294,0.34916 0.69426,0.39827 1.29031,0.64516c0.84294,0.34916 1.17661,0.95887 2.58063,1.29031c1.2558,0.29646 2.3134,-0.26723 3.22578,0.64516c0.45619,0.45619 0.64516,0.64516 1.29031,1.29031c0,0 0.18896,-0.45619 0.64516,0c0.45619,0.45619 0.69426,1.04343 1.29031,1.29031c0.84294,0.34916 0.64516,0.64516 1.29031,0.64516c0,0 0,0 0,0c0,-0.64516 0,-0.64516 0,-1.29031c0,0 0,-1.29031 0,-1.93547c0,-0.64516 0,-1.93547 0,-2.58063c0,-0.64516 0.49693,-1.30757 0.64516,-1.93547c0.33145,-1.40402 0.94116,-1.73769 1.29031,-2.58063c0.24689,-0.59605 0.64516,-1.29032 0.64516,-1.29032c0,0 0.44737,-0.296 1.29031,-0.64516c0.59605,-0.24689 1.29031,-0.64516 1.93547,-0.64516c0.64516,0 1.29031,0 1.93547,0c0,0 0.64516,0 1.29031,0c0.64516,0 1.09253,0.296 1.93547,0.64516c1.19209,0.49378 1.29031,0.64516 1.93547,1.29032c0.64517,0.64516 0.64517,1.29031 0.64517,1.93547c0,0 0.64516,1.29031 0.64516,1.93547c0,0 0,0.64516 0,1.29031c0,1.29031 0.64516,1.93547 0.64516,2.58063c0,0.64516 0,0.64516 0,1.29031c0,0 0,0 0.64516,0c0,0 0,-0.64516 0,-1.93547c0,-0.64516 0,-1.93547 0,-2.58063c0,-0.64516 0,-0.64516 0,-0.64516c0,-0.64516 0,-0.64516 -0.64516,-1.29032c-0.64516,-0.64516 -1.29031,-1.29031 -1.93549,-1.93547c0,0 -0.44681,-0.76516 -1.29031,-1.93547c-0.53348,-0.74017 -1.47928,-0.83412 -1.93547,-1.29031c-0.45619,-0.4562 -0.44737,-1.58632 -1.29031,-1.93547c-0.59605,-0.24689 -1.56055,-0.27023 -2.58063,-1.29031c-1.02008,-1.02008 -1.29031,-2.58063 -1.93547,-3.22579c-0.64516,-0.64516 -1.58632,-1.73769 -1.93547,-2.58063c-0.24689,-0.59605 -0.39827,-1.33942 -0.64516,-1.93547c-0.34915,-0.84294 -0.64516,-1.29032 -1.29031,-1.93547c0,0 -0.64516,-0.64516 -0.64516,-1.29031c0,0 0,-0.64516 0,-0.64516c0,0 0,0 0,-0.64516c0,0 0,0 0,0c0,-0.64516 0,-0.64516 -0.64516,-0.64516c0,0 0,-0.64516 0,-0.64516c0,0 -0.64516,0 -0.64516,0c-0.64516,0 -0.64516,-0.64516 -1.29031,-0.64516c-0.64516,0 -1.29031,0 -1.93547,0c-0.64516,0 -1.58632,-0.19778 -1.93547,0.64516c-0.24689,0.59605 -0.64516,1.29031 -0.64516,1.29031c0,0.64516 0,0.64516 -0.64516,1.29031c0,0 0,0 0,0c0,0.64516 0,0.64516 -0.64516,1.29031c0,0 0,0 -0.64516,0.64516c0,0 -0.64516,0 -1.93547,0c-0.64516,0 -1.29031,0 -1.93547,0c-1.29033,0 -1.33943,0.24689 -1.93549,0c-0.84294,-0.34916 -0.64516,-0.64516 -0.64516,-1.93547c0,-0.64516 -0.64516,-1.93547 -0.64516,-2.58063c0,-0.64516 -0.29601,-1.09253 -0.64516,-1.93547c-0.24689,-0.59605 0,-1.29031 0,-1.93547c0,0 0,-0.64516 0,-1.29031c0,-0.64516 -0.49377,-1.38853 0,-2.58063c0.69832,-1.68588 2.23148,-2.38285 2.58063,-3.22579c0.24689,-0.59605 0.39827,-0.69427 0.64516,-1.29031c0.34917,-0.84295 0.75685,-1.1953 1.29033,-1.93547c0.84351,-1.17031 1.47928,-2.12443 1.93547,-2.58063c0.45619,-0.45619 0.64516,0 0.64516,0c0.64516,0 0.64516,0 0.64516,0c0.64516,0 1.29031,-0.64516 1.93547,-1.29031c0.64516,-0.64516 0.83412,-0.83412 1.29031,-1.29031c0.45619,-0.45619 0.64516,0 1.29031,0c0,0 0.64516,0 1.93547,0c0,0 1.29031,0 1.29031,0c0.64516,0 1.29031,0 1.29031,0c0.64516,0 1.29031,0 1.93547,0.64516c0.64516,0.64516 1.58632,1.09253 1.93547,1.93547c0.24689,0.59605 0.74152,0.95114 1.29031,1.29032c1.22716,0.75843 1.58632,1.73769 1.93547,2.58063c0.24689,0.59605 0.74152,0.95114 1.29031,1.29031c1.22716,0.75843 1.29031,1.93547 1.93547,2.58063c0,0 0.64516,0.64516 1.29031,1.29032c0.64516,0.64516 1.29031,1.29032 1.93547,1.93547c0.64517,0.64516 1.19531,1.40199 1.93549,1.93547c1.1703,0.84351 2.3297,1.24391 3.87094,2.58063c1.08983,0.94521 1.93547,1.29031 2.58063,1.93547c0.64516,0.64516 1.04343,0.69427 1.29031,1.29031c0.34915,0.84294 0.83412,0.18896 1.29031,0.64516c0.45619,0.4562 0.18896,0.18896 0.64516,0.64516c0.45619,0.4562 0.39827,1.33942 0.64516,1.93547c0.34915,0.84294 1.29031,1.29032 1.29031,1.29032c0.64516,0.64516 1.29031,0.64516 1.29031,0.64516c0,0 0.52429,0.77858 1.93547,1.93547c1.7989,1.47475 2.58063,1.93547 3.87094,3.22579c0.64516,0.64516 0.64516,1.29031 1.29031,1.93547c0.64516,0.64516 1.1953,1.40199 1.93547,1.93547c1.1703,0.84351 2.58063,1.93547 3.22578,2.58063c0,0 0.39828,0.69427 0.64517,1.29032c0.34915,0.84294 0.64516,0.64516 0.64516,1.29031c0,0.64516 -0.24689,0.69427 0,1.29031c0.34915,0.84294 0.15138,1.38854 0.64516,2.58063c0.34915,0.84294 0.94116,1.09253 1.29031,1.93547c0.24689,0.59605 0,1.29031 0,1.29031c0,0.64516 0,1.29031 0,1.29031c0,0.64516 0,1.29031 0,1.93547c0,0 0.19778,0.296 -0.64516,0.64516c-0.59605,0.24689 -1.09253,0.94115 -1.93547,1.29031c-0.59605,0.24689 -1.29033,0.64516 -1.93549,1.29031c-0.64516,0.64516 -1.35703,1.87505 -1.93547,2.58064c-1.47475,1.7989 -1.93547,2.58063 -3.22578,3.87094c-0.64516,0.64516 -1.68858,1.33942 -1.93547,1.93547c-0.34915,0.84294 -0.64516,0.64516 -1.29031,1.29031c0,0 0,0 0,0c-0.64516,0.64516 -2.07916,1.7574 -4.5161,3.87094c-1.37854,1.1956 -3.36235,2.39619 -5.16125,3.87095c-1.41118,1.15689 -3.03577,2.80397 -4.5161,3.87094c-1.1703,0.84351 -1.93547,1.29031 -3.2258,2.58063c-0.64516,0.64516 -1.93547,0.64516 -3.22578,1.29031c-1.29031,0.64516 -2.61514,0.99386 -3.87094,1.29031c-1.40402,0.33144 -1.96999,0.3487 -3.22578,0.64516c-1.40402,0.33144 -1.96999,0.99387 -3.22578,1.29032c-1.40402,0.33144 -2.33374,1.33942 -2.58063,1.93547c-0.34915,0.84294 -0.64516,0.64516 -0.64516,0.64516c-1.93547,1.93547 -4.81575,4.81575 -7.09673,7.09673c-2.28098,2.28098 -4.38467,3.32982 -6.45158,5.80642c-0.92435,1.10757 -1.93547,1.93547 -2.58063,2.58063c-0.64516,0.64516 -1.93547,1.29031 -2.58063,1.93547c-0.64516,0.64516 -1.09253,1.58631 -1.93547,1.93547c-0.59605,0.24689 -1.09196,0.76516 -1.93547,1.93547c-0.53349,0.74017 -1.29031,0.64516 -1.93547,1.29031c-0.64516,0.64516 -1.29031,0.64516 -1.93547,1.29031c-0.64516,0.64516 -1.09253,0.94116 -1.93547,1.29031c-0.59605,0.24689 -1.29031,0.64516 -1.93548,0.64516c-0.64516,0 -0.64516,0.64516 -1.29031,0.64516c-0.64516,0 -0.64516,0.64516 -0.64516,0.64516c-0.64516,0 -0.64516,0.64516 -0.64516,0.64516l0,0" id="svg_24" opacity="undefined" fill-opacity="null" stroke-opacity="null" stroke-dasharray="null" stroke-width="null" stroke="#000" fill="none"/>
  <path stroke="#000" d="m80.64529,68.871c-0.64516,0 -0.64516,0 -0.64516,-0.59075c0,0 0,-0.59075 0,-1.18149c0,-0.59075 0,-1.18149 0,-1.18149c0,0 0,-0.59075 0,-0.59075c0,-0.59075 0,-1.1815 0,-1.1815c0,-0.59075 0,-0.59075 0,-1.18149c0,0 0,0 0,-0.59075c0,0 0,0 0,0c0,-0.59075 0,-0.59075 0,-1.18149c0,0 0,-0.59075 0,-0.59075c0,0 0,-0.59075 0,-0.59075c0,-0.59075 -0.64516,-0.59075 -0.64516,-0.59075c-0.64516,-0.59075 -0.64516,-0.59075 -0.64516,-0.59075c0,-0.59075 0,-0.59075 0,-0.59075c-0.64516,0 -0.64516,-0.59075 -0.64516,-0.59075c0,0 0,0 0,-0.59075c0,0 0,0 0,0c0,-0.59075 0,-0.59075 0,-0.59075c0.64516,-0.59075 0.64516,-0.59075 0.64516,-0.59075c0,0 0.18896,-0.17302 0.64516,-0.59075c0.45619,-0.41772 0.18896,-0.17302 0.64516,-0.59075c0.4562,-0.41772 -0.64516,-0.59075 -0.64516,-0.59075c-0.64516,0 -0.64516,0 -1.29031,0c0,0 -0.64516,0 -0.64516,0c0,0 -0.64516,0 -0.64516,0c0,0 0,0 0,-0.59075c0,0 0,0 0,-0.59075c0,0 0,0 0,0c0,-0.59075 0.18896,-0.76377 0.64516,-1.18149c0.45619,-0.41772 0.64516,-0.59075 0.64516,-0.59075c0.64516,-0.59075 0.18896,-0.76377 0.64516,-1.18149c0.45619,-0.41772 0.64516,0 0.64516,-0.59075c0,0 0,0 0.64516,0c0,0 0,-0.59075 0,-0.59075c0.64516,-0.59075 0.64516,-0.59075 0.64516,-1.1815c0,0 0.64516,0 0.64516,-0.59075c0,0 0,0 0,0c0,0 -0.296,-0.40965 -0.64516,-1.18149c-0.24689,-0.54578 -0.64516,-1.18149 -0.64516,-1.77224c0,0 0,0 0,0c0,-0.59075 0.296,-0.40965 0.64516,-1.18149c0.24689,-0.54578 0.64516,-0.59075 0.64516,-0.59075c0,-0.59075 0,-0.59075 0,-0.59075c0,-0.59075 0,-0.59075 0.64516,-1.18149c0,0 0,0 0,-0.59075c0,0 0,0 0.64516,-0.59075c0,0 0,0 0.64516,-0.59075c0,0 -0.45619,-0.17302 0,-0.59075c0.45619,-0.41772 0.39827,-0.04497 0.64516,-0.59075c0.34916,-0.77185 1.29031,-0.59075 1.29031,-0.59075c0,-0.59075 0,-1.1815 0,-1.77224c0,-0.59075 0,-0.59075 0,-1.18149c0,-0.59075 0,-1.18149 0,-1.18149c0,-1.18149 0,-1.18149 0,-1.77224c0,-0.59075 0,-1.18149 0,-1.18149c0,-0.59075 0,-0.59075 0,-0.59075c0,-0.59075 0,-0.59075 0,-0.59075c0.64516,0 1.29031,0 1.93547,0c0.64516,0 1.29031,-0.59075 1.29031,-0.59075c0.64516,0 0.44737,-0.27104 1.29031,-0.59075c0.59605,-0.22607 1.33942,-0.36468 1.93547,-0.59075c0.84294,-0.31971 1.47928,-0.76377 1.93548,-1.18149c0.4562,-0.41772 0.64516,-0.59075 1.29031,-0.59075c0,0 0.64516,-0.59075 0.64516,-0.59075c1.29031,-0.59075 2.7286,-1.37761 5.16125,-2.36299c2.1273,-0.86169 4.5161,-2.36299 5.80641,-2.36299c0.64516,0 0.64516,0 1.29032,0c0,0 -0.45619,0.17303 0,0.59075c0.45619,0.41772 0.64516,1.18149 0.64516,1.18149c0.64516,0.59075 0.64516,1.18149 0.64516,1.77224c0,0 0,0 0.64516,0c0,0 0,0 0.64516,0c0,0 0.64516,0 1.29031,0c0,0 0.44737,0.27104 1.29031,0.59075c0.59605,0.22607 0.94115,0.40965 1.29031,1.18149c0.24689,0.54578 0.64516,0.59075 0.64516,0.59075c0,0.59075 -0.45619,0.76377 0,1.18149c0.45619,0.41772 0.18896,0.76377 0.64516,1.18149c0.45619,0.41772 0.64516,0.59075 1.29031,1.18149c0.64516,0.59075 0.83412,0.76377 1.29031,1.18149c0.45619,0.41772 0.18896,0.76377 0.64516,1.18149c0.45619,0.41772 0,0.59075 0,0.59075c0.64516,0.59075 1.29031,1.18149 1.29031,1.77224c0,0 0.64516,0.59075 0.64516,0.59075c0.64516,0.59075 0.64516,1.18149 1.29031,1.77224c0.64516,0.59075 0.83412,0.76377 1.29031,1.18149c0.45619,0.41772 0,0.59075 0,1.18149c0,0 0,0 0,0.59075c0,0.59075 0,0.59075 0,1.18149c0,0.59075 0.64516,1.18149 0.64516,1.77224c0,0.59075 0.64516,1.77224 0.64516,1.77224c0,0.59075 0,1.18149 0,1.77224c0,0 0,0.59075 0,0.59075c0,0.59075 -0.83412,0.76377 -1.29031,1.18149c-0.45619,0.41772 -0.83412,1.35452 -1.29031,1.77224c-0.45619,0.41772 -0.64516,1.18149 -1.29031,1.77224c-0.64516,0.59075 -0.44738,0.86178 -1.29032,1.18149c-0.59605,0.22607 -0.83412,0.17302 -1.29031,0.59075c-0.45619,0.41772 -0.64516,1.18149 -0.64516,1.18149c0,0.59075 -0.64516,1.1815 -0.64516,1.77224c0,0.59075 -0.14822,1.19729 0,1.77224c0.33144,1.28561 0.64516,1.77224 1.29031,2.36298c0.64516,0.59075 0.69427,0.95543 1.29031,1.1815c0.84294,0.31971 0.69427,0.95542 1.29032,1.18149c0.84294,0.31971 0.44737,0.86178 1.29031,1.18149c0.59605,0.22607 1.09253,0.27104 1.93547,0.59075c0.59605,0.22607 1.29031,0 1.29031,0c0.64516,0.59075 0.64516,0.59075 1.29031,0.59075l0,0l0,-0.59075" id="svg_25" opacity="undefined" fill-opacity="null" stroke-opacity="null" stroke-dasharray="null" stroke-width="null" fill="none"/>
  <path d="m143.22554,35.96798c0,-0.64516 0.29601,-0.44738 0.64516,-1.29031c0.24689,-0.59605 0.64516,-0.64516 0.64516,-0.64516c0,0 0,-0.64516 0.64516,-0.64516c0,0 0.18896,-0.18896 0.64516,-0.64516c0.45619,-0.4562 0.44737,-0.296 1.29031,-0.64516c0.59605,-0.24689 0.64516,0 1.29031,0c0,0 0,0 0.64516,-0.64516l0,0l0.64516,0" id="svg_26" opacity="undefined" fill-opacity="null" stroke-opacity="null" stroke-dasharray="null" stroke-width="null" stroke="#000" fill="none"/>
  <path d="m149.03195,24.35515c-0.64516,0 -0.64516,0 -0.64516,0c0,0 -0.64516,0 -0.64516,0c0,0 -0.64516,0 -1.29031,0.64516c0,0 0,0 -0.64516,0.64516c0,0 0,0 -0.64516,0.64516c0,0 -0.64516,0.64516 -0.64516,0.64516c-0.64516,0.64516 -0.83412,0.83412 -1.29031,1.29032c-0.45619,0.45619 0,0.64516 0,0.64516c0,0.64516 0,0.64516 -0.64516,1.29031l0,0l0,0.64516l0,0" id="svg_27" opacity="undefined" fill-opacity="null" stroke-opacity="null" stroke-dasharray="null" stroke-width="null" stroke="#000" fill="none"/>
  <path d="m149.03195,43.06471c0,0 0.64516,0 1.29031,0c0.64516,0 0.64516,0 1.29031,0c0,0 0.64516,0 0.64516,0c0,0 0.64516,0 0.64516,0c0.64516,-0.64516 0.44737,-0.94116 1.29031,-1.29031c0.59605,-0.24689 0.18896,-0.18896 0.64516,-0.64516c0.45619,-0.4562 0.64516,0 1.29031,0c0,0 0,-0.64516 0.64516,-0.64516c0,0 0.64516,0 1.29031,-0.64516l0.64516,0l0,0l0,0" id="svg_28" opacity="undefined" fill-opacity="null" stroke-opacity="null" stroke-dasharray="null" stroke-width="null" stroke="#000" fill="none"/>
  <path d="m49.67774,33.38736c0,0.64516 0,1.29031 0,1.93547c0,0 0,0 0,0.64516c0,0 0.64516,0 0.64516,0.64516c0,0 0,0 0,0c0.64516,0 0.69427,0.39827 1.29031,0.64516c0.84294,0.34916 0.83412,0.83412 1.29031,1.29031c0.4562,0.4562 0.24689,0.59605 0,0c-0.34916,-0.84294 -1.33942,-1.04342 -1.93547,-1.29031c-0.84294,-0.34916 -1.29031,-1.29031 -1.29031,-1.29031c-0.64516,0 -0.64516,0 -0.64516,0c0,0.64516 -0.18896,0.18896 -0.64516,0.64516c-0.4562,0.4562 0,0.64516 0,0.64516c0,0 0,0 0,-0.64516c0,-0.64516 0,-0.64516 0,-1.29031c0,-0.64516 -0.296,-1.09253 -0.64516,-1.93547c-0.24689,-0.59605 -0.64516,-1.29032 -0.64516,-1.93547c0,0 -0.64516,0 -0.64516,0l0,0l0,0l0,0" id="svg_29" opacity="undefined" fill-opacity="null" stroke-opacity="null" stroke-dasharray="null" stroke-width="null" stroke="#000" fill="none"/>
  <path d="m5.80704,52.74207c0,0 0.64516,0 0.64516,0c0.64516,-0.64516 1.58632,-1.09253 1.93547,-1.93547c0.24689,-0.59605 0.64516,-0.64516 0.64516,-0.64516c0,-0.64516 0.64516,-0.64516 1.29031,-1.29031c0.64516,-0.64516 0.64516,-1.29031 1.29031,-1.29031c0,0 0.64516,-0.64516 0.64516,-0.64516c0.64516,-0.64516 0.64516,-0.64516 1.29031,-1.29032c0.64516,-0.64516 0.64516,-0.64516 1.29031,-0.64516c0,0 0.18896,-0.18896 0.64516,-0.64516c0.45619,-0.4562 0.39827,-0.69427 0.64516,-1.29031c0.34916,-0.84294 0.4468,-0.76516 1.29032,-1.93547c1.06697,-1.48034 3.36235,-2.39619 5.16126,-3.87094c1.41118,-1.15689 2.76959,-2.12443 3.22579,-2.58063c0.45619,-0.4562 0.64516,-0.64516 0.64516,-0.64516c0,0 0.296,0.19778 0.64516,-0.64516c0.24689,-0.59605 0.75683,-1.1953 1.29032,-1.93547c0.84351,-1.17031 1.93547,-2.58063 3.22579,-3.87094l0,-0.64516l0.64516,-0.64516l0,0" id="svg_30" opacity="undefined" fill-opacity="null" stroke-opacity="null" stroke-dasharray="null" stroke-width="null" stroke="#000" fill="none"/>
 </g>
</svg>